<svg width="1600" height="400" viewBox="0 0 1600 400" fill="none" xmlns="http://www.w3.org/2000/svg">
<rect width="1600" height="400" fill="white"/>
<path fill-rule="evenodd" clip-rule="evenodd" d="M795.381 72.2837C795.381 67.4537 790.157 64.435 785.978 66.85L739.813 93.5275C735.633 95.9425 735.633 101.98 739.813 104.395L785.978 131.072C790.157 133.487 795.381 130.469 795.381 125.639V72.2837ZM813.143 130.997C808.964 133.412 803.74 130.394 803.74 125.564V72.2837C803.74 67.4537 808.964 64.435 813.143 66.85L859.243 93.4899C863.423 95.9049 863.423 101.942 859.243 104.357L813.143 130.997ZM817.257 149.147C813.078 146.732 813.078 140.695 817.257 138.28L863.447 111.588C867.626 109.173 872.85 112.192 872.85 117.022V170.405C872.85 175.235 867.626 178.254 863.447 175.839L817.257 149.147ZM819.779 230.522C815.6 232.937 810.376 229.918 810.376 225.088V171.826C810.376 166.996 815.6 163.978 819.779 166.393L865.864 193.024C870.044 195.439 870.044 201.476 865.864 203.891L819.779 230.522ZM781.734 149.147C785.913 146.732 785.913 140.695 781.734 138.28L735.674 111.663C731.494 109.248 726.271 112.267 726.271 117.097V170.33C726.271 175.16 731.494 178.179 735.674 175.764L781.734 149.147ZM739.828 193.891C735.649 191.476 735.649 185.438 739.828 183.023L785.978 156.355C790.157 153.94 795.381 156.958 795.381 161.788V215.126C795.381 219.956 790.157 222.974 785.978 220.559L739.828 193.891ZM848.163 198.947C850.115 197.714 850.699 195.131 849.467 193.177C848.236 191.223 845.655 190.639 843.703 191.872L830.011 200.518L827.225 195.523C826.099 193.506 823.553 192.784 821.538 193.91C819.523 195.037 818.802 197.585 819.927 199.602L823.789 206.523C825.541 209.664 829.567 210.69 832.607 208.77L848.163 198.947Z" fill="url(#paint0_linear_220_2)"/>
<path d="M636.18 331.41C631.936 331.41 627.967 330.638 624.274 329.095C620.635 327.551 617.438 325.429 614.682 322.728C611.926 319.972 609.776 316.774 608.233 313.136C606.744 309.443 606 305.502 606 301.312C606 297.123 606.744 293.236 608.233 289.653C609.776 286.015 611.898 282.846 614.599 280.144C617.356 277.388 620.553 275.266 624.191 273.778C627.829 272.234 631.77 271.462 636.015 271.462C640.26 271.462 644.201 272.234 647.839 273.778C651.477 275.266 654.675 277.388 657.431 280.144C660.187 282.846 662.309 286.015 663.798 289.653C665.341 293.292 666.113 297.205 666.113 301.395C666.113 305.584 665.341 309.498 663.798 313.136C662.309 316.774 660.187 319.972 657.431 322.728C654.73 325.429 651.56 327.551 647.922 329.095C644.284 330.638 640.37 331.41 636.18 331.41ZM636.015 320.909C639.708 320.909 642.933 320.082 645.689 318.428C648.501 316.774 650.678 314.487 652.222 311.565C653.82 308.644 654.619 305.226 654.619 301.312C654.619 298.446 654.151 295.827 653.214 293.457C652.332 291.087 651.064 289.047 649.41 287.338C647.756 285.574 645.8 284.224 643.539 283.287C641.279 282.349 638.771 281.881 636.015 281.881C632.377 281.881 629.152 282.708 626.341 284.361C623.585 285.96 621.407 288.22 619.809 291.142C618.265 294.063 617.493 297.453 617.493 301.312C617.493 304.234 617.934 306.907 618.816 309.333C619.753 311.758 621.021 313.825 622.62 315.534C624.274 317.243 626.231 318.566 628.491 319.503C630.806 320.44 633.314 320.909 636.015 320.909ZM662.392 334.8L635.767 308.175L642.547 301.312L669.255 328.02L662.392 334.8Z" fill="#3C3C3C"/>
<path d="M692.598 331.327C689.07 331.327 685.928 330.583 683.172 329.095C680.471 327.606 678.349 325.539 676.805 322.893C675.262 320.247 674.49 317.188 674.49 313.715V290.563H685.404V313.467C685.404 315.121 685.68 316.554 686.231 317.767C686.783 318.924 687.609 319.806 688.712 320.413C689.814 321.019 691.11 321.322 692.598 321.322C694.858 321.322 696.622 320.633 697.89 319.255C699.158 317.877 699.792 315.948 699.792 313.467V290.563H710.624V313.715C710.624 317.243 709.852 320.33 708.309 322.976C706.82 325.622 704.698 327.689 701.942 329.177C699.241 330.611 696.126 331.327 692.598 331.327Z" fill="#3C3C3C"/>
<path d="M719.25 330.5V290.563H730.164V330.5H719.25ZM724.707 284.113C722.943 284.113 721.482 283.535 720.324 282.377C719.167 281.164 718.588 279.676 718.588 277.912C718.588 276.203 719.167 274.742 720.324 273.53C721.482 272.317 722.943 271.71 724.707 271.71C726.526 271.71 727.987 272.317 729.089 273.53C730.247 274.742 730.826 276.203 730.826 277.912C730.826 279.676 730.247 281.164 729.089 282.377C727.987 283.535 726.526 284.113 724.707 284.113Z" fill="#3C3C3C"/>
<path d="M736.948 324.299L758.116 296.764H771.18L750.013 324.299H736.948ZM736.948 330.5V324.299L745.548 321.074H770.684V330.5H736.948ZM738.437 299.989V290.563H771.18V296.764L762.498 299.989H738.437Z" fill="#3C3C3C"/>
<path d="M775.465 324.299L796.633 296.764H809.697L788.53 324.299H775.465ZM775.465 330.5V324.299L784.064 321.074H809.201V330.5H775.465ZM776.953 299.989V290.563H809.697V296.764L801.015 299.989H776.953Z" fill="#3C3C3C"/>
<path d="M832.769 331.327C829.131 331.327 825.851 330.418 822.93 328.598C820.008 326.779 817.72 324.299 816.067 321.157C814.413 318.015 813.586 314.487 813.586 310.573C813.586 306.604 814.413 303.048 816.067 299.906C817.72 296.764 820.008 294.284 822.93 292.465C825.851 290.646 829.131 289.736 832.769 289.736C835.636 289.736 838.199 290.315 840.459 291.472C842.719 292.63 844.511 294.256 845.834 296.351C847.212 298.391 847.956 300.706 848.066 303.297V317.684C847.956 320.33 847.212 322.673 845.834 324.712C844.511 326.752 842.719 328.378 840.459 329.591C838.199 330.748 835.636 331.327 832.769 331.327ZM834.754 321.322C837.785 321.322 840.238 320.33 842.113 318.345C843.987 316.306 844.924 313.687 844.924 310.49C844.924 308.396 844.483 306.549 843.601 304.95C842.774 303.297 841.589 302.029 840.046 301.147C838.557 300.21 836.793 299.741 834.754 299.741C832.769 299.741 831.005 300.21 829.462 301.147C827.973 302.029 826.788 303.297 825.906 304.95C825.079 306.549 824.666 308.396 824.666 310.49C824.666 312.64 825.079 314.542 825.906 316.196C826.788 317.794 827.973 319.062 829.462 319.999C831.005 320.881 832.769 321.322 834.754 321.322ZM844.345 330.5V319.751L846.082 309.994L844.345 300.403V290.563H855.094V330.5H844.345Z" fill="#3C3C3C"/>
<path d="M865.835 330.5V272.372H877.08V330.5H865.835ZM902.299 330.5V272.372H913.544V330.5H902.299ZM872.946 305.446V295.524H905.441V305.446H872.946Z" fill="#3C3C3C"/>
<path d="M941.302 331.327C937.775 331.327 934.632 330.583 931.876 329.095C929.175 327.606 927.053 325.539 925.509 322.893C923.966 320.247 923.194 317.188 923.194 313.715V290.563H934.109V313.467C934.109 315.121 934.384 316.554 934.936 317.767C935.487 318.924 936.314 319.806 937.416 320.413C938.519 321.019 939.814 321.322 941.302 321.322C943.563 321.322 945.327 320.633 946.594 319.255C947.862 317.877 948.496 315.948 948.496 313.467V290.563H959.328V313.715C959.328 317.243 958.556 320.33 957.013 322.976C955.524 325.622 953.402 327.689 950.646 329.177C947.945 330.611 944.83 331.327 941.302 331.327Z" fill="#3C3C3C"/>
<path d="M973.825 330.5V273.943H984.656V330.5H973.825ZM964.481 300.072V290.563H994V300.072H964.481Z" fill="#3C3C3C"/>
<path d="M1354.02 371.726H1357.48V377H1343.75V371.726H1347.53L1347.51 359.267L1347.66 357.25V355.926L1347.51 353.09V349.665L1353.77 344.392H1354.02V371.726ZM1341.17 344.56C1342.89 344.56 1344.48 344.826 1345.93 345.358C1347.4 345.876 1348.66 346.661 1349.73 347.711C1350.81 348.748 1351.65 350.044 1352.25 351.598L1347.66 356.62C1347.66 355.331 1347.43 354.204 1346.96 353.237C1346.49 352.257 1345.8 351.493 1344.91 350.947C1344.01 350.387 1342.93 350.107 1341.68 350.107C1340.39 350.107 1339.29 350.373 1338.39 350.905C1337.51 351.437 1336.84 352.194 1336.37 353.174C1335.91 354.155 1335.68 355.31 1335.68 356.641C1335.68 357.929 1335.93 359.064 1336.43 360.045C1336.93 361.011 1337.63 361.767 1338.52 362.314C1339.42 362.846 1340.47 363.112 1341.68 363.112C1342.92 363.112 1343.99 362.846 1344.88 362.314C1345.78 361.767 1346.46 361.011 1346.93 360.045C1347.42 359.064 1347.66 357.922 1347.66 356.62L1348.3 361.704H1347.3C1347.01 363.189 1346.55 364.45 1345.91 365.486C1345.27 366.509 1344.42 367.3 1343.37 367.86C1342.33 368.407 1341.07 368.68 1339.59 368.68C1337.97 368.68 1336.5 368.365 1335.19 367.734C1333.9 367.104 1332.79 366.236 1331.86 365.129C1330.94 364.023 1330.22 362.741 1329.73 361.284C1329.24 359.827 1329 358.259 1329 356.578C1329 354.141 1329.51 352.026 1330.52 350.233C1331.53 348.426 1332.94 347.032 1334.76 346.052C1336.59 345.057 1338.72 344.56 1341.17 344.56Z" fill="black"/>
<path d="M1372.48 368.68C1369.87 368.68 1367.6 368.176 1365.67 367.167C1363.73 366.145 1362.22 364.737 1361.14 362.944C1360.07 361.137 1359.54 359.05 1359.54 356.683C1359.54 354.288 1360.07 352.18 1361.14 350.359C1362.22 348.538 1363.73 347.116 1365.67 346.094C1367.6 345.071 1369.87 344.56 1372.48 344.56C1375.07 344.56 1377.33 345.071 1379.27 346.094C1381.22 347.116 1382.72 348.538 1383.79 350.359C1384.86 352.18 1385.39 354.288 1385.39 356.683C1385.39 359.05 1384.86 361.137 1383.79 362.944C1382.72 364.737 1381.22 366.145 1379.29 367.167C1377.35 368.176 1375.08 368.68 1372.48 368.68ZM1372.48 363.028C1373.7 363.028 1374.78 362.769 1375.7 362.251C1376.64 361.718 1377.37 360.976 1377.9 360.024C1378.43 359.071 1378.69 357.95 1378.69 356.662C1378.69 355.387 1378.43 354.267 1377.9 353.3C1377.37 352.32 1376.64 351.556 1375.7 351.01C1374.78 350.464 1373.7 350.191 1372.48 350.191C1371.25 350.191 1370.17 350.464 1369.23 351.01C1368.31 351.556 1367.58 352.32 1367.05 353.3C1366.53 354.267 1366.26 355.387 1366.26 356.662C1366.26 357.95 1366.53 359.071 1367.05 360.024C1367.58 360.976 1368.31 361.718 1369.23 362.251C1370.17 362.769 1371.25 363.028 1372.48 363.028Z" fill="black"/>
<path d="M1398.52 362.944H1402.04V368.197H1388.36V362.944H1392.03V340.253H1388.36V335H1398.52V362.944Z" fill="black"/>
<path d="M1414.96 362.944H1418.49V368.197H1404.8V362.944H1408.47V340.253H1404.8V335H1414.96V362.944Z" fill="black"/>
<path d="M1440.55 368.197C1439.61 368.197 1438.88 367.923 1438.37 367.377C1437.87 366.817 1437.62 366.033 1437.62 365.024V360.045L1438.07 359.204L1437.81 356.683L1437.62 355.275V353.447C1437.62 352.649 1437.45 351.99 1437.11 351.472C1436.77 350.94 1436.27 350.548 1435.62 350.296C1434.97 350.044 1434.2 349.917 1433.29 349.917C1432.01 349.917 1430.96 350.177 1430.15 350.695C1429.35 351.199 1428.83 352.005 1428.59 353.111L1422.61 352.208C1422.87 350.569 1423.43 349.175 1424.3 348.027C1425.17 346.878 1426.38 346.003 1427.95 345.4C1429.52 344.798 1431.47 344.497 1433.82 344.497C1436.03 344.497 1437.89 344.784 1439.42 345.358C1440.95 345.918 1442.12 346.801 1442.92 348.006C1443.71 349.21 1444.11 350.765 1444.11 352.67V362.923H1446.93V368.197H1440.55ZM1429.38 368.617C1426.92 368.617 1425.05 368.057 1423.79 366.936C1422.52 365.815 1421.89 364.233 1421.89 362.188C1421.89 360.199 1422.52 358.686 1423.79 357.649C1425.05 356.599 1427.04 355.835 1429.74 355.359L1438.82 353.678V356.788L1431.62 358.301C1430.6 358.497 1429.85 358.833 1429.38 359.309C1428.91 359.771 1428.68 360.388 1428.68 361.158C1428.68 361.984 1428.94 362.615 1429.47 363.049C1430.01 363.483 1430.78 363.7 1431.77 363.7C1432.91 363.7 1433.94 363.42 1434.85 362.86C1435.77 362.3 1436.5 361.501 1437.02 360.465C1437.55 359.414 1437.81 358.154 1437.81 356.683L1438.88 361.62H1437.43C1437.12 363.959 1436.27 365.71 1434.89 366.873C1433.51 368.036 1431.67 368.617 1429.38 368.617Z" fill="black"/>
<path d="M1452.09 368.806V340.253H1448.54V335H1458.58V353.342L1458.45 355.632V358.931L1458.58 363.532L1452.34 368.806H1452.09ZM1464.94 368.68C1463.22 368.68 1461.63 368.421 1460.16 367.902C1458.71 367.37 1457.44 366.586 1456.36 365.549C1455.29 364.499 1454.47 363.196 1453.88 361.641L1458.45 356.62C1458.45 357.894 1458.69 359.022 1459.16 360.003C1459.63 360.969 1460.31 361.732 1461.21 362.293C1462.1 362.839 1463.18 363.112 1464.45 363.112C1465.73 363.112 1466.81 362.846 1467.7 362.314C1468.59 361.767 1469.27 361.011 1469.72 360.045C1470.19 359.064 1470.43 357.908 1470.43 356.578C1470.43 355.289 1470.18 354.162 1469.68 353.195C1469.18 352.229 1468.49 351.472 1467.59 350.926C1466.69 350.38 1465.65 350.107 1464.45 350.107C1463.2 350.107 1462.12 350.38 1461.23 350.926C1460.33 351.472 1459.64 352.236 1459.16 353.216C1458.69 354.183 1458.45 355.317 1458.45 356.62L1457.81 351.514H1458.81C1459.1 350.044 1459.56 348.79 1460.2 347.753C1460.84 346.717 1461.68 345.925 1462.72 345.379C1463.77 344.833 1465.04 344.56 1466.52 344.56C1468.14 344.56 1469.6 344.875 1470.9 345.505C1472.21 346.122 1473.33 346.983 1474.25 348.09C1475.18 349.196 1475.88 350.485 1476.36 351.955C1476.86 353.412 1477.11 354.974 1477.11 356.641C1477.11 359.078 1476.61 361.2 1475.6 363.007C1474.6 364.814 1473.18 366.215 1471.35 367.209C1469.52 368.19 1467.39 368.68 1464.94 368.68Z" fill="black"/>
<path d="M1491.35 362.944H1494.73V368.197H1481.19V362.944H1484.86V350.296H1481.19V345.043H1491.35V362.944ZM1499.4 351.241C1499.16 351.171 1498.89 351.122 1498.59 351.094C1498.31 351.052 1497.99 351.031 1497.65 351.031C1495.67 351.031 1494.13 351.598 1493.02 352.733C1491.91 353.867 1491.35 355.485 1491.35 357.586L1490.22 351.892H1491.59C1491.74 350.296 1492.09 348.965 1492.63 347.9C1493.19 346.822 1493.93 346.017 1494.85 345.484C1495.78 344.952 1496.88 344.686 1498.14 344.686C1498.38 344.686 1498.61 344.7 1498.8 344.728C1499.02 344.742 1499.22 344.77 1499.4 344.812V351.241Z" fill="black"/>
<path d="M1520.62 368.197C1519.68 368.197 1518.95 367.923 1518.44 367.377C1517.94 366.817 1517.69 366.033 1517.69 365.024V360.045L1518.14 359.204L1517.88 356.683L1517.69 355.275V353.447C1517.69 352.649 1517.52 351.99 1517.18 351.472C1516.84 350.94 1516.34 350.548 1515.68 350.296C1515.04 350.044 1514.27 349.917 1513.36 349.917C1512.08 349.917 1511.03 350.177 1510.22 350.695C1509.42 351.199 1508.9 352.005 1508.66 353.111L1502.68 352.208C1502.94 350.569 1503.5 349.175 1504.37 348.027C1505.24 346.878 1506.45 346.003 1508.02 345.4C1509.58 344.798 1511.54 344.497 1513.89 344.497C1516.1 344.497 1517.96 344.784 1519.48 345.358C1521.02 345.918 1522.19 346.801 1522.99 348.006C1523.78 349.21 1524.18 350.765 1524.18 352.67V362.923H1527V368.197H1520.62ZM1509.45 368.617C1506.99 368.617 1505.12 368.057 1503.86 366.936C1502.59 365.815 1501.96 364.233 1501.96 362.188C1501.96 360.199 1502.59 358.686 1503.86 357.649C1505.12 356.599 1507.11 355.835 1509.81 355.359L1518.89 353.678V356.788L1511.69 358.301C1510.67 358.497 1509.92 358.833 1509.45 359.309C1508.98 359.771 1508.75 360.388 1508.75 361.158C1508.75 361.984 1509.01 362.615 1509.54 363.049C1510.08 363.483 1510.84 363.7 1511.84 363.7C1512.98 363.7 1514 363.42 1514.92 362.86C1515.84 362.3 1516.57 361.501 1517.09 360.465C1517.62 359.414 1517.88 358.154 1517.88 356.683L1518.95 361.62H1517.5C1517.19 363.959 1516.34 365.71 1514.96 366.873C1513.58 368.036 1511.74 368.617 1509.45 368.617Z" fill="black"/>
<path d="M1300.9 368.25V366.61H1305.1C1305.9 366.61 1306.53 366.377 1306.98 365.91C1307.43 365.43 1307.66 364.857 1307.66 364.19C1307.66 363.737 1307.56 363.33 1307.36 362.97C1307.16 362.597 1306.87 362.303 1306.48 362.09C1306.11 361.877 1305.67 361.77 1305.16 361.77H1300.9V360.13H1304.88C1305.55 360.13 1306.07 359.957 1306.46 359.61C1306.86 359.25 1307.06 358.737 1307.06 358.07C1307.06 357.403 1306.85 356.897 1306.44 356.55C1306.03 356.19 1305.48 356.01 1304.8 356.01H1300.9V354.37H1304.84C1305.75 354.37 1306.5 354.537 1307.1 354.87C1307.71 355.19 1308.17 355.617 1308.48 356.15C1308.8 356.683 1308.96 357.27 1308.96 357.91C1308.96 358.657 1308.75 359.31 1308.34 359.87C1307.94 360.43 1307.35 360.87 1306.56 361.19L1306.72 360.59C1307.61 360.91 1308.31 361.397 1308.8 362.05C1309.31 362.69 1309.56 363.45 1309.56 364.33C1309.56 365.063 1309.38 365.723 1309.02 366.31C1308.66 366.897 1308.14 367.37 1307.46 367.73C1306.79 368.077 1305.97 368.25 1305 368.25H1300.9ZM1299.64 368.25V354.37H1301.52V368.25H1299.64ZM1315.82 362.61L1310.36 354.37H1312.54L1316.94 361.11H1315.96L1320.38 354.37H1322.52L1317.02 362.61H1315.82ZM1315.5 368.25V361.37H1317.38V368.25H1315.5Z" fill="black"/>
<path d="M1290 368.25C1289.72 368.25 1289.5 368.474 1289.5 368.75C1289.5 369.026 1289.72 369.25 1290 369.25V368.25ZM1545.33 368.75C1545.33 370.223 1546.53 371.417 1548 371.417C1549.47 371.417 1550.67 370.223 1550.67 368.75C1550.67 367.277 1549.47 366.083 1548 366.083C1546.53 366.083 1545.33 367.277 1545.33 368.75ZM1290 369.25H1548V368.25H1290V369.25Z" fill="#B5B4B4" fill-opacity="0.46"/>
<defs>
<linearGradient id="paint0_linear_220_2" x1="726.271" y1="66" x2="891.031" y2="216.419" gradientUnits="userSpaceOnUse">
<stop stop-color="#2DFEF5"/>
<stop offset="1" stop-color="#00ACF2"/>
</linearGradient>
</defs>
</svg>
