<svg width="372" height="258" viewBox="0 0 372 258" fill="none" xmlns="http://www.w3.org/2000/svg">
<path fill-rule="evenodd" clip-rule="evenodd" d="M181.489 6.02932C181.489 1.40339 176.486 -1.4878 172.483 0.825163L128.268 26.3756C124.265 28.6886 124.265 34.471 128.268 36.784L172.483 62.3344C176.486 64.6474 181.489 61.7561 181.489 57.1302V6.02932ZM198.5 62.2625C194.498 64.5755 189.494 61.6843 189.494 57.0583V6.02932C189.494 1.40339 194.498 -1.4878 198.5 0.825164L242.653 26.3397C246.656 28.6527 246.656 34.4351 242.653 36.748L198.5 62.2625ZM202.441 79.6456C198.438 77.3326 198.438 71.5503 202.441 69.2373L246.68 43.6732C250.682 41.3602 255.685 44.2514 255.685 48.8773V100.006C255.685 104.632 250.682 107.523 246.68 105.21L202.441 79.6456ZM204.856 157.583C200.854 159.896 195.85 157.005 195.85 152.379V101.367C195.85 96.7408 200.854 93.8496 204.856 96.1626L248.995 121.668C252.997 123.981 252.997 129.764 248.995 132.077L204.856 157.583ZM168.419 79.6457C172.421 77.3327 172.421 71.5503 168.419 69.2373L124.304 43.7451C120.301 41.4321 115.298 44.3233 115.298 48.9492V99.9337C115.298 104.56 120.301 107.451 124.304 105.138L168.419 79.6457ZM128.283 122.499C124.28 120.186 124.28 114.403 128.283 112.09L172.483 86.5486C176.486 84.2356 181.489 87.1268 181.489 91.7527V142.837C181.489 147.463 176.486 150.354 172.483 148.041L128.283 122.499ZM232.041 127.341C233.91 126.161 234.47 123.687 233.29 121.815C232.11 119.944 229.639 119.384 227.769 120.565L214.656 128.846L211.987 124.062C210.909 122.13 208.471 121.439 206.541 122.518C204.611 123.596 203.92 126.037 204.998 127.969L208.696 134.597C210.375 137.605 214.231 138.588 217.142 136.75L232.041 127.341Z" fill="white"/>
<path d="M29.0138 254.208C24.9486 254.208 21.1473 253.469 17.61 251.991C14.1255 250.512 11.0634 248.48 8.42365 245.893C5.78389 243.253 3.72487 240.191 2.24661 236.707C0.821134 233.169 0.108398 229.394 0.108398 225.382C0.108398 221.37 0.821134 217.647 2.24661 214.216C3.72487 210.731 5.75749 207.696 8.34446 205.109C10.9842 202.469 14.0463 200.436 17.5308 199.011C21.0153 197.532 24.7902 196.793 28.8554 196.793C32.9206 196.793 36.6955 197.532 40.18 199.011C43.6645 200.436 46.7266 202.469 49.3664 205.109C52.0061 207.696 54.0387 210.731 55.4642 214.216C56.9425 217.7 57.6816 221.449 57.6816 225.461C57.6816 229.474 56.9425 233.222 55.4642 236.707C54.0387 240.191 52.0061 243.253 49.3664 245.893C46.7794 248.48 43.7437 250.512 40.2592 251.991C36.7747 253.469 33.0262 254.208 29.0138 254.208ZM28.8554 244.151C32.3927 244.151 35.4812 243.359 38.121 241.775C40.8135 240.191 42.8989 238 44.3772 235.202C45.9083 232.404 46.6738 229.13 46.6738 225.382C46.6738 222.637 46.225 220.129 45.3275 217.859C44.4828 215.588 43.2685 213.635 41.6847 211.998C40.1008 210.309 38.2266 209.015 36.062 208.118C33.8974 207.22 31.4952 206.772 28.8554 206.772C25.3709 206.772 22.2824 207.564 19.5898 209.147C16.9501 210.678 14.8647 212.843 13.3336 215.641C11.8553 218.439 11.1162 221.686 11.1162 225.382C11.1162 228.18 11.5386 230.741 12.3833 233.064C13.2808 235.387 14.4951 237.366 16.0262 239.003C17.61 240.64 19.4843 241.907 21.6489 242.804C23.8663 243.702 26.2684 244.151 28.8554 244.151ZM54.1179 257.455L28.6178 231.955L35.1116 225.382L60.6909 250.961L54.1179 257.455Z" fill="white"/>
<path d="M83.0481 254.129C79.6692 254.129 76.6599 253.416 74.0201 251.991C71.4331 250.565 69.4005 248.585 67.9222 246.051C66.444 243.517 65.7048 240.587 65.7048 237.261V215.087H76.1583V237.023C76.1583 238.607 76.4223 239.98 76.9502 241.141C77.4782 242.25 78.2701 243.095 79.326 243.676C80.3819 244.256 81.6226 244.547 83.0481 244.547C85.2127 244.547 86.9021 243.887 88.1164 242.567C89.3307 241.247 89.9379 239.399 89.9379 237.023V215.087H100.312V237.261C100.312 240.64 99.573 243.596 98.0947 246.13C96.6693 248.665 94.6366 250.644 91.9969 252.07C89.4099 253.443 86.427 254.129 83.0481 254.129Z" fill="white"/>
<path d="M108.574 253.337V215.087H119.027V253.337H108.574ZM113.8 208.91C112.111 208.91 110.712 208.355 109.603 207.247C108.494 206.085 107.94 204.66 107.94 202.97C107.94 201.334 108.494 199.935 109.603 198.773C110.712 197.612 112.111 197.031 113.8 197.031C115.543 197.031 116.942 197.612 117.997 198.773C119.106 199.935 119.661 201.334 119.661 202.97C119.661 204.66 119.106 206.085 117.997 207.247C116.942 208.355 115.543 208.91 113.8 208.91Z" fill="white"/>
<path d="M125.525 247.398L145.798 221.026H158.31L138.037 247.398H125.525ZM125.525 253.337V247.398L133.761 244.309H157.835V253.337H125.525ZM126.95 224.115V215.087H158.31V221.026L149.995 224.115H126.95Z" fill="white"/>
<path d="M162.414 247.398L182.688 221.026H195.2L174.927 247.398H162.414ZM162.414 253.337V247.398L170.65 244.309H194.725V253.337H162.414ZM163.84 224.115V215.087H195.2V221.026L186.885 224.115H163.84Z" fill="white"/>
<path d="M217.297 254.129C213.813 254.129 210.672 253.258 207.873 251.516C205.075 249.773 202.884 247.398 201.3 244.388C199.716 241.379 198.925 238 198.925 234.252C198.925 230.45 199.716 227.045 201.3 224.036C202.884 221.026 205.075 218.651 207.873 216.908C210.672 215.166 213.813 214.295 217.297 214.295C220.043 214.295 222.498 214.849 224.662 215.958C226.827 217.067 228.543 218.624 229.81 220.63C231.13 222.584 231.842 224.801 231.948 227.283V241.062C231.842 243.596 231.13 245.84 229.81 247.794C228.543 249.747 226.827 251.304 224.662 252.466C222.498 253.575 220.043 254.129 217.297 254.129ZM219.198 244.547C222.102 244.547 224.451 243.596 226.246 241.696C228.041 239.742 228.939 237.234 228.939 234.172C228.939 232.166 228.516 230.398 227.672 228.866C226.88 227.283 225.745 226.068 224.266 225.224C222.841 224.326 221.151 223.877 219.198 223.877C217.297 223.877 215.608 224.326 214.13 225.224C212.704 226.068 211.569 227.283 210.724 228.866C209.932 230.398 209.536 232.166 209.536 234.172C209.536 236.231 209.932 238.053 210.724 239.637C211.569 241.168 212.704 242.382 214.13 243.28C215.608 244.124 217.297 244.547 219.198 244.547ZM228.384 253.337V243.042L230.047 233.697L228.384 224.511V215.087H238.679V253.337H228.384Z" fill="white"/>
<path d="M248.966 253.337V197.664H259.736V253.337H248.966ZM283.89 253.337V197.664H294.66V253.337H283.89ZM255.776 229.342V219.838H286.899V229.342H255.776Z" fill="white"/>
<path d="M321.245 254.129C317.867 254.129 314.857 253.416 312.217 251.991C309.63 250.565 307.598 248.585 306.12 246.051C304.641 243.517 303.902 240.587 303.902 237.261V215.087H314.356V237.023C314.356 238.607 314.62 239.98 315.148 241.141C315.676 242.25 316.467 243.095 317.523 243.676C318.579 244.256 319.82 244.547 321.245 244.547C323.41 244.547 325.099 243.887 326.314 242.567C327.528 241.247 328.135 239.399 328.135 237.023V215.087H338.509V237.261C338.509 240.64 337.77 243.596 336.292 246.13C334.867 248.665 332.834 250.644 330.194 252.07C327.607 253.443 324.624 254.129 321.245 254.129Z" fill="white"/>
<path d="M352.394 253.337V199.169H362.768V253.337H352.394ZM343.445 224.194V215.087H371.717V224.194H343.445Z" fill="white"/>
</svg>
