<svg width="463" height="132" viewBox="0 0 463 132" fill="none" xmlns="http://www.w3.org/2000/svg">
<path fill-rule="evenodd" clip-rule="evenodd" d="M55.1642 5.01563C55.1642 1.16034 50.9945 -1.2492 47.6587 0.67844L10.8093 21.9724C7.47348 23.9001 7.47349 28.7192 10.8093 30.6468L47.6587 51.9407C50.9945 53.8684 55.1642 51.4588 55.1642 47.6035V5.01563ZM69.3414 51.8808C66.0056 53.8085 61.8358 51.3989 61.8358 47.5436V5.01563C61.8358 1.16034 66.0056 -1.2492 69.3414 0.678441L106.139 21.9425C109.475 23.8701 109.475 28.6892 106.139 30.6168L69.3414 51.8808ZM72.6253 66.3681C69.2895 64.4404 69.2895 59.6213 72.6253 57.6937L109.494 36.3883C112.83 34.4607 117 36.8702 117 40.7255V83.3363C117 87.1916 112.83 89.6011 109.494 87.6735L72.6253 66.3681ZM74.6386 131.322C71.3028 133.249 67.133 130.84 67.133 126.984V84.4706C67.133 80.6153 71.3028 78.2058 74.6386 80.1334L111.424 101.39C114.76 103.318 114.76 108.137 111.424 110.065L74.6386 131.322ZM44.271 66.3681C47.6068 64.4405 47.6068 59.6214 44.271 57.6937L7.50555 36.4482C4.16975 34.5206 0 36.9302 0 40.7854V83.2764C0 87.1316 4.16975 89.5412 7.50555 87.6136L44.271 66.3681ZM10.8216 102.082C7.4858 100.155 7.48579 95.3356 10.8216 93.4079L47.6587 72.1211C50.9945 70.1934 55.1642 72.603 55.1642 76.4583V119.032C55.1642 122.887 50.9945 125.297 47.6587 123.369L10.8216 102.082ZM97.2943 106.118C98.8524 105.134 99.3186 103.072 98.3355 101.513C97.3524 99.9532 95.2924 99.4867 93.7343 100.471L82.8058 107.372L80.5816 103.385C79.6833 101.775 77.6512 101.199 76.0427 102.098C74.4342 102.997 73.8584 105.031 74.7566 106.641L77.8389 112.165C79.2375 114.672 82.4514 115.491 84.8776 113.959L97.2943 106.118Z" fill="white"/>
<path d="M177.09 81.85C173.702 81.85 170.534 81.234 167.586 80.002C164.682 78.77 162.13 77.076 159.93 74.92C157.73 72.72 156.014 70.168 154.782 67.264C153.594 64.316 153 61.17 153 57.826C153 54.482 153.594 51.38 154.782 48.52C156.014 45.616 157.708 43.086 159.864 40.93C162.064 38.73 164.616 37.036 167.52 35.848C170.424 34.616 173.57 34 176.958 34C180.346 34 183.492 34.616 186.396 35.848C189.3 37.036 191.852 38.73 194.052 40.93C196.252 43.086 197.946 45.616 199.134 48.52C200.366 51.424 200.982 54.548 200.982 57.892C200.982 61.236 200.366 64.36 199.134 67.264C197.946 70.168 196.252 72.72 194.052 74.92C191.896 77.076 189.366 78.77 186.462 80.002C183.558 81.234 180.434 81.85 177.09 81.85ZM176.958 73.468C179.906 73.468 182.48 72.808 184.68 71.488C186.924 70.168 188.662 68.342 189.894 66.01C191.17 63.678 191.808 60.95 191.808 57.826C191.808 55.538 191.434 53.448 190.686 51.556C189.982 49.664 188.97 48.036 187.65 46.672C186.33 45.264 184.768 44.186 182.964 43.438C181.16 42.69 179.158 42.316 176.958 42.316C174.054 42.316 171.48 42.976 169.236 44.296C167.036 45.572 165.298 47.376 164.022 49.708C162.79 52.04 162.174 54.746 162.174 57.826C162.174 60.158 162.526 62.292 163.23 64.228C163.978 66.164 164.99 67.814 166.266 69.178C167.586 70.542 169.148 71.598 170.952 72.346C172.8 73.094 174.802 73.468 176.958 73.468ZM198.012 84.556L176.76 63.304L182.172 57.826L203.49 79.144L198.012 84.556Z" fill="white"/>
<path d="M222.123 81.784C219.307 81.784 216.799 81.19 214.599 80.002C212.443 78.814 210.749 77.164 209.517 75.052C208.285 72.94 207.669 70.498 207.669 67.726V49.246H216.381V67.528C216.381 68.848 216.601 69.992 217.041 70.96C217.481 71.884 218.141 72.588 219.021 73.072C219.901 73.556 220.935 73.798 222.123 73.798C223.927 73.798 225.335 73.248 226.347 72.148C227.359 71.048 227.865 69.508 227.865 67.528V49.246H236.511V67.726C236.511 70.542 235.895 73.006 234.663 75.118C233.475 77.23 231.781 78.88 229.581 80.068C227.425 81.212 224.939 81.784 222.123 81.784Z" fill="white"/>
<path d="M243.396 81.124V49.246H252.108V81.124H243.396ZM247.752 44.098C246.344 44.098 245.178 43.636 244.254 42.712C243.33 41.744 242.868 40.556 242.868 39.148C242.868 37.784 243.33 36.618 244.254 35.65C245.178 34.682 246.344 34.198 247.752 34.198C249.204 34.198 250.37 34.682 251.25 35.65C252.174 36.618 252.636 37.784 252.636 39.148C252.636 40.556 252.174 41.744 251.25 42.712C250.37 43.636 249.204 44.098 247.752 44.098Z" fill="white"/>
<path d="M257.523 76.174L274.419 54.196H284.847L267.951 76.174H257.523ZM257.523 81.124V76.174L264.387 73.6H284.451V81.124H257.523ZM258.711 56.77V49.246H284.847V54.196L277.917 56.77H258.711Z" fill="white"/>
<path d="M288.267 76.174L305.163 54.196H315.591L298.695 76.174H288.267ZM288.267 81.124V76.174L295.131 73.6H315.195V81.124H288.267ZM289.455 56.77V49.246H315.591V54.196L308.661 56.77H289.455Z" fill="white"/>
<path d="M334.007 81.784C331.103 81.784 328.485 81.058 326.153 79.606C323.821 78.154 321.995 76.174 320.675 73.666C319.355 71.158 318.695 68.342 318.695 65.218C318.695 62.05 319.355 59.212 320.675 56.704C321.995 54.196 323.821 52.216 326.153 50.764C328.485 49.312 331.103 48.586 334.007 48.586C336.295 48.586 338.341 49.048 340.145 49.972C341.949 50.896 343.379 52.194 344.435 53.866C345.535 55.494 346.129 57.342 346.217 59.41V70.894C346.129 73.006 345.535 74.876 344.435 76.504C343.379 78.132 341.949 79.43 340.145 80.398C338.341 81.322 336.295 81.784 334.007 81.784ZM335.591 73.798C338.011 73.798 339.969 73.006 341.465 71.422C342.961 69.794 343.709 67.704 343.709 65.152C343.709 63.48 343.357 62.006 342.653 60.73C341.993 59.41 341.047 58.398 339.815 57.694C338.627 56.946 337.219 56.572 335.591 56.572C334.007 56.572 332.599 56.946 331.367 57.694C330.179 58.398 329.233 59.41 328.529 60.73C327.869 62.006 327.539 63.48 327.539 65.152C327.539 66.868 327.869 68.386 328.529 69.706C329.233 70.982 330.179 71.994 331.367 72.742C332.599 73.446 334.007 73.798 335.591 73.798ZM343.247 81.124V72.544L344.633 64.756L343.247 57.1V49.246H351.827V81.124H343.247Z" fill="white"/>
<path d="M360.4 81.124V34.726H369.376V81.124H360.4ZM389.506 81.124V34.726H398.482V81.124H389.506ZM366.076 61.126V53.206H392.014V61.126H366.076Z" fill="white"/>
<path d="M420.638 81.784C417.822 81.784 415.314 81.19 413.114 80.002C410.958 78.814 409.264 77.164 408.032 75.052C406.8 72.94 406.184 70.498 406.184 67.726V49.246H414.896V67.528C414.896 68.848 415.116 69.992 415.556 70.96C415.996 71.884 416.656 72.588 417.536 73.072C418.416 73.556 419.45 73.798 420.638 73.798C422.442 73.798 423.85 73.248 424.862 72.148C425.874 71.048 426.38 69.508 426.38 67.528V49.246H435.026V67.726C435.026 70.542 434.41 73.006 433.178 75.118C431.99 77.23 430.296 78.88 428.096 80.068C425.94 81.212 423.454 81.784 420.638 81.784Z" fill="white"/>
<path d="M446.597 81.124V35.98H455.243V81.124H446.597ZM439.139 56.836V49.246H462.701V56.836H439.139Z" fill="white"/>
</svg>
