<svg width="463" height="132" viewBox="0 0 463 132" fill="none" xmlns="http://www.w3.org/2000/svg">
<path fill-rule="evenodd" clip-rule="evenodd" d="M55.2726 5.01563C55.2726 1.16034 51.1029 -1.2492 47.7671 0.67844L10.9177 21.9724C7.58188 23.9001 7.58188 28.7192 10.9177 30.6468L47.7671 51.9407C51.1029 53.8684 55.2726 51.4588 55.2726 47.6035V5.01563ZM69.4498 51.8808C66.114 53.8085 61.9442 51.3989 61.9442 47.5436V5.01563C61.9442 1.16034 66.114 -1.2492 69.4498 0.678441L106.247 21.9425C109.583 23.8701 109.583 28.6892 106.247 30.6168L69.4498 51.8808ZM72.7337 66.3681C69.3979 64.4404 69.3979 59.6213 72.7337 57.6937L109.603 36.3883C112.939 34.4607 117.108 36.8702 117.108 40.7255V83.3363C117.108 87.1916 112.939 89.6011 109.603 87.6735L72.7337 66.3681ZM74.747 131.322C71.4112 133.249 67.2414 130.84 67.2414 126.984V84.4706C67.2414 80.6153 71.4112 78.2058 74.747 80.1334L111.532 101.39C114.868 103.318 114.868 108.137 111.532 110.065L74.747 131.322ZM44.3794 66.3681C47.7152 64.4405 47.7152 59.6214 44.3794 57.6937L7.61395 36.4482C4.27815 34.5206 0.108398 36.9302 0.108398 40.7854V83.2764C0.108398 87.1316 4.27815 89.5412 7.61395 87.6136L44.3794 66.3681ZM10.93 102.082C7.5942 100.155 7.59419 95.3356 10.93 93.4079L47.7671 72.1211C51.1029 70.1934 55.2726 72.603 55.2726 76.4583V119.032C55.2726 122.887 51.1029 125.297 47.7671 123.369L10.93 102.082ZM97.4027 106.118C98.9608 105.134 99.427 103.072 98.4439 101.513C97.4608 99.9532 95.4008 99.4867 93.8427 100.471L82.9142 107.372L80.69 103.385C79.7917 101.775 77.7596 101.199 76.1511 102.098C74.5426 102.997 73.9668 105.031 74.865 106.641L77.9473 112.165C79.3459 114.672 82.5598 115.491 84.986 113.959L97.4027 106.118Z" fill="url(#paint0_linear_502_14)"/>
<path d="M177.198 81.85C173.81 81.85 170.642 81.234 167.694 80.002C164.79 78.77 162.238 77.076 160.038 74.92C157.838 72.72 156.122 70.168 154.89 67.264C153.702 64.316 153.108 61.17 153.108 57.826C153.108 54.482 153.702 51.38 154.89 48.52C156.122 45.616 157.816 43.086 159.972 40.93C162.172 38.73 164.724 37.036 167.628 35.848C170.532 34.616 173.678 34 177.066 34C180.454 34 183.6 34.616 186.504 35.848C189.408 37.036 191.96 38.73 194.16 40.93C196.36 43.086 198.054 45.616 199.242 48.52C200.474 51.424 201.09 54.548 201.09 57.892C201.09 61.236 200.474 64.36 199.242 67.264C198.054 70.168 196.36 72.72 194.16 74.92C192.004 77.076 189.474 78.77 186.57 80.002C183.666 81.234 180.542 81.85 177.198 81.85ZM177.066 73.468C180.014 73.468 182.588 72.808 184.788 71.488C187.032 70.168 188.77 68.342 190.002 66.01C191.278 63.678 191.916 60.95 191.916 57.826C191.916 55.538 191.542 53.448 190.794 51.556C190.09 49.664 189.078 48.036 187.758 46.672C186.438 45.264 184.876 44.186 183.072 43.438C181.268 42.69 179.266 42.316 177.066 42.316C174.162 42.316 171.588 42.976 169.344 44.296C167.144 45.572 165.406 47.376 164.13 49.708C162.898 52.04 162.282 54.746 162.282 57.826C162.282 60.158 162.634 62.292 163.338 64.228C164.086 66.164 165.098 67.814 166.374 69.178C167.694 70.542 169.256 71.598 171.06 72.346C172.908 73.094 174.91 73.468 177.066 73.468ZM198.12 84.556L176.868 63.304L182.28 57.826L203.598 79.144L198.12 84.556Z" fill="#3C3C3C"/>
<path d="M222.231 81.784C219.415 81.784 216.907 81.19 214.707 80.002C212.551 78.814 210.857 77.164 209.625 75.052C208.393 72.94 207.777 70.498 207.777 67.726V49.246H216.489V67.528C216.489 68.848 216.709 69.992 217.149 70.96C217.589 71.884 218.249 72.588 219.129 73.072C220.009 73.556 221.043 73.798 222.231 73.798C224.035 73.798 225.443 73.248 226.455 72.148C227.467 71.048 227.973 69.508 227.973 67.528V49.246H236.619V67.726C236.619 70.542 236.003 73.006 234.771 75.118C233.583 77.23 231.889 78.88 229.689 80.068C227.533 81.212 225.047 81.784 222.231 81.784Z" fill="#3C3C3C"/>
<path d="M243.504 81.124V49.246H252.216V81.124H243.504ZM247.86 44.098C246.452 44.098 245.286 43.636 244.362 42.712C243.438 41.744 242.976 40.556 242.976 39.148C242.976 37.784 243.438 36.618 244.362 35.65C245.286 34.682 246.452 34.198 247.86 34.198C249.312 34.198 250.478 34.682 251.358 35.65C252.282 36.618 252.744 37.784 252.744 39.148C252.744 40.556 252.282 41.744 251.358 42.712C250.478 43.636 249.312 44.098 247.86 44.098Z" fill="#3C3C3C"/>
<path d="M257.631 76.174L274.527 54.196H284.955L268.059 76.174H257.631ZM257.631 81.124V76.174L264.495 73.6H284.559V81.124H257.631ZM258.819 56.77V49.246H284.955V54.196L278.025 56.77H258.819Z" fill="#3C3C3C"/>
<path d="M288.375 76.174L305.271 54.196H315.699L298.803 76.174H288.375ZM288.375 81.124V76.174L295.239 73.6H315.303V81.124H288.375ZM289.563 56.77V49.246H315.699V54.196L308.769 56.77H289.563Z" fill="#3C3C3C"/>
<path d="M334.115 81.784C331.211 81.784 328.593 81.058 326.261 79.606C323.929 78.154 322.103 76.174 320.783 73.666C319.463 71.158 318.803 68.342 318.803 65.218C318.803 62.05 319.463 59.212 320.783 56.704C322.103 54.196 323.929 52.216 326.261 50.764C328.593 49.312 331.211 48.586 334.115 48.586C336.403 48.586 338.449 49.048 340.253 49.972C342.057 50.896 343.487 52.194 344.543 53.866C345.643 55.494 346.237 57.342 346.325 59.41V70.894C346.237 73.006 345.643 74.876 344.543 76.504C343.487 78.132 342.057 79.43 340.253 80.398C338.449 81.322 336.403 81.784 334.115 81.784ZM335.699 73.798C338.119 73.798 340.077 73.006 341.573 71.422C343.069 69.794 343.817 67.704 343.817 65.152C343.817 63.48 343.465 62.006 342.761 60.73C342.101 59.41 341.155 58.398 339.923 57.694C338.735 56.946 337.327 56.572 335.699 56.572C334.115 56.572 332.707 56.946 331.475 57.694C330.287 58.398 329.341 59.41 328.637 60.73C327.977 62.006 327.647 63.48 327.647 65.152C327.647 66.868 327.977 68.386 328.637 69.706C329.341 70.982 330.287 71.994 331.475 72.742C332.707 73.446 334.115 73.798 335.699 73.798ZM343.355 81.124V72.544L344.741 64.756L343.355 57.1V49.246H351.935V81.124H343.355Z" fill="#3C3C3C"/>
<path d="M360.508 81.124V34.726H369.484V81.124H360.508ZM389.614 81.124V34.726H398.59V81.124H389.614ZM366.184 61.126V53.206H392.122V61.126H366.184Z" fill="#3C3C3C"/>
<path d="M420.747 81.784C417.931 81.784 415.423 81.19 413.223 80.002C411.067 78.814 409.373 77.164 408.141 75.052C406.909 72.94 406.293 70.498 406.293 67.726V49.246H415.005V67.528C415.005 68.848 415.225 69.992 415.665 70.96C416.105 71.884 416.765 72.588 417.645 73.072C418.525 73.556 419.559 73.798 420.747 73.798C422.551 73.798 423.959 73.248 424.971 72.148C425.983 71.048 426.489 69.508 426.489 67.528V49.246H435.135V67.726C435.135 70.542 434.519 73.006 433.287 75.118C432.099 77.23 430.405 78.88 428.205 80.068C426.049 81.212 423.563 81.784 420.747 81.784Z" fill="#3C3C3C"/>
<path d="M446.706 81.124V35.98H455.352V81.124H446.706ZM439.248 56.836V49.246H462.81V56.836H439.248Z" fill="#3C3C3C"/>
<defs>
<linearGradient id="paint0_linear_502_14" x1="0.108398" y1="0" x2="131.62" y2="120.064" gradientUnits="userSpaceOnUse">
<stop stop-color="#2DFEF5"/>
<stop offset="1" stop-color="#00ACF2"/>
</linearGradient>
</defs>
</svg>
