<svg width="373" height="258" viewBox="0 0 373 258" fill="none" xmlns="http://www.w3.org/2000/svg">
<path fill-rule="evenodd" clip-rule="evenodd" d="M181.881 6.50021C181.881 1.87428 176.878 -1.01692 172.875 1.29605L128.66 26.8465C124.657 29.1595 124.657 34.9419 128.66 37.2548L172.875 62.8053C176.878 65.1182 181.881 62.227 181.881 57.6011V6.50021ZM198.892 62.7334C194.889 65.0463 189.886 62.1551 189.886 57.5292V6.50021C189.886 1.87428 194.889 -1.01691 198.892 1.29605L243.045 26.8106C247.047 29.1235 247.047 34.9059 243.045 37.2189L198.892 62.7334ZM202.832 80.1165C198.83 77.8035 198.83 72.0211 202.832 69.7082L247.071 44.1441C251.074 41.8311 256.077 44.7223 256.077 49.3482V100.477C256.077 105.102 251.074 107.994 247.071 105.681L202.832 80.1165ZM205.248 158.054C201.245 160.367 196.242 157.475 196.242 152.85V101.838C196.242 97.2117 201.245 94.3205 205.248 96.6334L249.386 122.139C253.389 124.452 253.389 130.235 249.386 132.548L205.248 158.054ZM168.81 80.1165C172.813 77.8036 172.813 72.0212 168.81 69.7082L124.696 44.216C120.693 41.903 115.69 44.7942 115.69 49.4201V100.405C115.69 105.031 120.693 107.922 124.696 105.609L168.81 80.1165ZM128.674 122.97C124.672 120.657 124.672 114.874 128.674 112.561L172.875 87.0195C176.878 84.7065 181.881 87.5977 181.881 92.2236V143.307C181.881 147.933 176.878 150.825 172.875 148.512L128.674 122.97ZM232.432 127.812C234.302 126.632 234.861 124.158 233.682 122.286C232.502 120.415 230.03 119.855 228.161 121.036L215.048 129.317L212.379 124.533C211.301 122.601 208.863 121.91 206.933 122.989C205.003 124.067 204.312 126.508 205.39 128.44L209.088 135.068C210.766 138.076 214.622 139.059 217.534 137.221L232.432 127.812Z" fill="url(#paint0_linear_502_32)"/>
<path d="M29.4054 254.679C25.3402 254.679 21.5389 253.94 18.0016 252.462C14.5171 250.983 11.455 248.951 8.81525 246.364C6.17549 243.724 4.11647 240.662 2.63821 237.177C1.21274 233.64 0.5 229.865 0.5 225.853C0.5 221.84 1.21274 218.118 2.63821 214.687C4.11647 211.202 6.14909 208.167 8.73606 205.58C11.3758 202.94 14.4379 200.907 17.9224 199.482C21.4069 198.003 25.1818 197.264 29.247 197.264C33.3122 197.264 37.0871 198.003 40.5716 199.482C44.0561 200.907 47.1182 202.94 49.758 205.58C52.3977 208.167 54.4303 211.202 55.8558 214.687C57.3341 218.171 58.0732 221.92 58.0732 225.932C58.0732 229.945 57.3341 233.693 55.8558 237.177C54.4303 240.662 52.3977 243.724 49.758 246.364C47.171 248.951 44.1353 250.983 40.6508 252.462C37.1663 253.94 33.4178 254.679 29.4054 254.679ZM29.247 244.622C32.7843 244.622 35.8728 243.83 38.5126 242.246C41.2051 240.662 43.2905 238.471 44.7688 235.673C46.2999 232.875 47.0654 229.601 47.0654 225.853C47.0654 223.108 46.6166 220.6 45.7191 218.33C44.8744 216.059 43.6601 214.106 42.0763 212.469C40.4924 210.78 38.6182 209.486 36.4536 208.589C34.289 207.691 31.8868 207.243 29.247 207.243C25.7625 207.243 22.674 208.035 19.9814 209.618C17.3417 211.149 15.2563 213.314 13.7252 216.112C12.2469 218.91 11.5078 222.157 11.5078 225.853C11.5078 228.651 11.9302 231.212 12.7749 233.535C13.6724 235.858 14.8867 237.837 16.4178 239.474C18.0016 241.111 19.8759 242.378 22.0405 243.275C24.2579 244.173 26.66 244.622 29.247 244.622ZM54.5095 257.926L29.0094 232.426L35.5033 225.853L61.0825 251.432L54.5095 257.926Z" fill="#3C3C3C"/>
<path d="M83.4397 254.6C80.0608 254.6 77.0515 253.887 74.4117 252.462C71.8247 251.036 69.7921 249.056 68.3138 246.522C66.8356 243.988 66.0964 241.058 66.0964 237.732V215.558H76.5499V237.494C76.5499 239.078 76.8139 240.451 77.3418 241.612C77.8698 242.721 78.6617 243.566 79.7176 244.146C80.7735 244.727 82.0142 245.018 83.4397 245.018C85.6043 245.018 87.2937 244.358 88.508 243.038C89.7223 241.718 90.3295 239.87 90.3295 237.494V215.558H100.704V237.732C100.704 241.111 99.9646 244.067 98.4863 246.601C97.0609 249.136 95.0282 251.115 92.3885 252.541C89.8015 253.914 86.8186 254.6 83.4397 254.6Z" fill="#3C3C3C"/>
<path d="M108.965 253.808V215.558H119.419V253.808H108.965ZM114.192 209.381C112.502 209.381 111.103 208.826 109.995 207.718C108.886 206.556 108.332 205.131 108.332 203.441C108.332 201.805 108.886 200.406 109.995 199.244C111.103 198.083 112.502 197.502 114.192 197.502C115.934 197.502 117.333 198.083 118.389 199.244C119.498 200.406 120.052 201.805 120.052 203.441C120.052 205.131 119.498 206.556 118.389 207.718C117.333 208.826 115.934 209.381 114.192 209.381Z" fill="#3C3C3C"/>
<path d="M125.916 247.869L146.19 221.497H158.702L138.429 247.869H125.916ZM125.916 253.808V247.869L134.152 244.78H158.227V253.808H125.916ZM127.342 224.586V215.558H158.702V221.497L150.387 224.586H127.342Z" fill="#3C3C3C"/>
<path d="M162.806 247.869L183.079 221.497H195.592L175.318 247.869H162.806ZM162.806 253.808V247.869L171.042 244.78H195.116V253.808H162.806ZM164.231 224.586V215.558H195.592V221.497L187.276 224.586H164.231Z" fill="#3C3C3C"/>
<path d="M217.689 254.6C214.204 254.6 211.063 253.729 208.265 251.987C205.467 250.244 203.276 247.869 201.692 244.859C200.108 241.85 199.316 238.471 199.316 234.723C199.316 230.921 200.108 227.516 201.692 224.507C203.276 221.497 205.467 219.122 208.265 217.379C211.063 215.637 214.204 214.766 217.689 214.766C220.434 214.766 222.889 215.32 225.054 216.429C227.218 217.538 228.934 219.095 230.201 221.101C231.521 223.055 232.234 225.272 232.34 227.754V241.533C232.234 244.067 231.521 246.311 230.201 248.264C228.934 250.218 227.218 251.775 225.054 252.937C222.889 254.046 220.434 254.6 217.689 254.6ZM219.59 245.018C222.493 245.018 224.843 244.067 226.638 242.167C228.433 240.213 229.33 237.705 229.33 234.643C229.33 232.637 228.908 230.868 228.063 229.337C227.271 227.754 226.136 226.539 224.658 225.695C223.232 224.797 221.543 224.348 219.59 224.348C217.689 224.348 215.999 224.797 214.521 225.695C213.096 226.539 211.961 227.754 211.116 229.337C210.324 230.868 209.928 232.637 209.928 234.643C209.928 236.702 210.324 238.524 211.116 240.108C211.961 241.639 213.096 242.853 214.521 243.75C215.999 244.595 217.689 245.018 219.59 245.018ZM228.776 253.808V243.513L230.439 234.168L228.776 224.982V215.558H239.071V253.808H228.776Z" fill="#3C3C3C"/>
<path d="M249.357 253.808V198.135H260.128V253.808H249.357ZM284.281 253.808V198.135H295.052V253.808H284.281ZM256.168 229.813V220.309H287.291V229.813H256.168Z" fill="#3C3C3C"/>
<path d="M321.637 254.6C318.258 254.6 315.249 253.887 312.609 252.462C310.022 251.036 307.989 249.056 306.511 246.522C305.033 243.988 304.294 241.058 304.294 237.732V215.558H314.747V237.494C314.747 239.078 315.011 240.451 315.539 241.612C316.067 242.721 316.859 243.566 317.915 244.146C318.971 244.727 320.212 245.018 321.637 245.018C323.802 245.018 325.491 244.358 326.705 243.038C327.92 241.718 328.527 239.87 328.527 237.494V215.558H338.901V237.732C338.901 241.111 338.162 244.067 336.684 246.601C335.258 249.136 333.226 251.115 330.586 252.541C327.999 253.914 325.016 254.6 321.637 254.6Z" fill="#3C3C3C"/>
<path d="M352.785 253.808V199.64H363.159V253.808H352.785ZM343.836 224.665V215.558H372.108V224.665H343.836Z" fill="#3C3C3C"/>
<defs>
<linearGradient id="paint0_linear_502_32" x1="115.69" y1="0.481995" x2="273.49" y2="144.546" gradientUnits="userSpaceOnUse">
<stop stop-color="#2DFEF5"/>
<stop offset="1" stop-color="#00ACF2"/>
</linearGradient>
</defs>
</svg>
