<svg width="720" height="720" viewBox="0 0 720 720" fill="none" xmlns="http://www.w3.org/2000/svg">
<path d="M202.937 485.199C198.871 485.199 195.07 484.459 191.533 482.981C188.048 481.503 184.986 479.47 182.347 476.883C179.707 474.244 177.648 471.181 176.169 467.697C174.744 464.16 174.031 460.385 174.031 456.372C174.031 452.36 174.744 448.638 176.169 445.206C177.648 441.722 179.68 438.686 182.267 436.099C184.907 433.459 187.969 431.427 191.454 430.001C194.938 428.523 198.713 427.784 202.778 427.784C206.843 427.784 210.618 428.523 214.103 430.001C217.587 431.427 220.649 433.459 223.289 436.099C225.929 438.686 227.962 441.722 229.387 445.206C230.865 448.691 231.604 452.439 231.604 456.452C231.604 460.464 230.865 464.212 229.387 467.697C227.962 471.181 225.929 474.244 223.289 476.883C220.702 479.47 217.667 481.503 214.182 482.981C210.698 484.459 206.949 485.199 202.937 485.199ZM202.778 475.141C206.316 475.141 209.404 474.349 212.044 472.765C214.736 471.181 216.822 468.99 218.3 466.192C219.831 463.394 220.597 460.121 220.597 456.372C220.597 453.627 220.148 451.119 219.25 448.849C218.406 446.579 217.191 444.625 215.608 442.989C214.024 441.299 212.149 440.006 209.985 439.108C207.82 438.211 205.418 437.762 202.778 437.762C199.294 437.762 196.205 438.554 193.513 440.138C190.873 441.669 188.788 443.833 187.256 446.632C185.778 449.43 185.039 452.677 185.039 456.372C185.039 459.17 185.461 461.731 186.306 464.054C187.204 466.377 188.418 468.357 189.949 469.993C191.533 471.63 193.407 472.897 195.572 473.795C197.789 474.692 200.191 475.141 202.778 475.141ZM228.041 488.445L202.541 462.945L209.035 456.372L234.614 481.952L228.041 488.445Z" fill="white"/>
<path d="M256.971 485.119C253.592 485.119 250.583 484.407 247.943 482.981C245.356 481.556 243.323 479.576 241.845 477.042C240.367 474.507 239.628 471.577 239.628 468.251V446.077H250.081V468.014C250.081 469.598 250.345 470.97 250.873 472.132C251.401 473.24 252.193 474.085 253.249 474.666C254.305 475.247 255.545 475.537 256.971 475.537C259.136 475.537 260.825 474.877 262.039 473.557C263.254 472.237 263.861 470.389 263.861 468.014V446.077H274.235V468.251C274.235 471.63 273.496 474.587 272.018 477.121C270.592 479.655 268.559 481.635 265.92 483.06C263.333 484.433 260.35 485.119 256.971 485.119Z" fill="white"/>
<path d="M282.496 484.327V446.077H292.95V484.327H282.496ZM287.723 439.9C286.034 439.9 284.635 439.346 283.526 438.237C282.417 437.076 281.863 435.65 281.863 433.961C281.863 432.324 282.417 430.925 283.526 429.764C284.635 428.602 286.034 428.021 287.723 428.021C289.465 428.021 290.864 428.602 291.92 429.764C293.029 430.925 293.583 432.324 293.583 433.961C293.583 435.65 293.029 437.076 291.92 438.237C290.864 439.346 289.465 439.9 287.723 439.9Z" fill="white"/>
<path d="M299.447 478.388L319.721 452.017H332.233L311.96 478.388H299.447ZM299.447 484.327V478.388L307.683 475.299H331.758V484.327H299.447ZM300.873 455.105V446.077H332.233V452.017L323.918 455.105H300.873Z" fill="white"/>
<path d="M336.337 478.388L356.61 452.017H369.123L348.849 478.388H336.337ZM336.337 484.327V478.388L344.573 475.299H368.648V484.327H336.337ZM337.763 455.105V446.077H369.123V452.017L360.808 455.105H337.763Z" fill="white"/>
<path d="M391.22 485.119C387.736 485.119 384.594 484.248 381.796 482.506C378.998 480.764 376.807 478.388 375.223 475.379C373.639 472.369 372.847 468.99 372.847 465.242C372.847 461.441 373.639 458.035 375.223 455.026C376.807 452.017 378.998 449.641 381.796 447.899C384.594 446.156 387.736 445.285 391.22 445.285C393.966 445.285 396.421 445.84 398.585 446.948C400.75 448.057 402.466 449.615 403.733 451.621C405.053 453.574 405.765 455.792 405.871 458.273V472.053C405.765 474.587 405.053 476.83 403.733 478.784C402.466 480.737 400.75 482.295 398.585 483.456C396.421 484.565 393.966 485.119 391.22 485.119ZM393.121 475.537C396.025 475.537 398.374 474.587 400.169 472.686C401.964 470.733 402.862 468.225 402.862 465.163C402.862 463.157 402.439 461.388 401.594 459.857C400.802 458.273 399.667 457.059 398.189 456.214C396.764 455.316 395.074 454.868 393.121 454.868C391.22 454.868 389.531 455.316 388.052 456.214C386.627 457.059 385.492 458.273 384.647 459.857C383.855 461.388 383.459 463.157 383.459 465.163C383.459 467.222 383.855 469.043 384.647 470.627C385.492 472.158 386.627 473.372 388.052 474.27C389.531 475.115 391.22 475.537 393.121 475.537ZM402.307 484.327V474.032L403.97 464.688L402.307 455.501V446.077H412.602V484.327H402.307Z" fill="white"/>
<path d="M422.889 484.327V428.655H433.659V484.327H422.889ZM457.813 484.327V428.655H468.583V484.327H457.813ZM429.699 460.332V450.829H460.822V460.332H429.699Z" fill="white"/>
<path d="M495.168 485.119C491.789 485.119 488.78 484.407 486.14 482.981C483.553 481.556 481.521 479.576 480.042 477.042C478.564 474.507 477.825 471.577 477.825 468.251V446.077H488.278V468.014C488.278 469.598 488.542 470.97 489.07 472.132C489.598 473.24 490.39 474.085 491.446 474.666C492.502 475.247 493.743 475.537 495.168 475.537C497.333 475.537 499.022 474.877 500.237 473.557C501.451 472.237 502.058 470.389 502.058 468.014V446.077H512.432V468.251C512.432 471.63 511.693 474.587 510.215 477.121C508.789 479.655 506.757 481.635 504.117 483.06C501.53 484.433 498.547 485.119 495.168 485.119Z" fill="white"/>
<path d="M526.316 484.327V430.159H536.691V484.327H526.316ZM517.368 455.184V446.077H545.639V455.184H517.368Z" fill="white"/>
<path fill-rule="evenodd" clip-rule="evenodd" d="M355.381 237.018C355.381 232.392 350.378 229.501 346.375 231.814L302.16 257.365C298.157 259.677 298.157 265.46 302.16 267.773L346.375 293.323C350.378 295.636 355.381 292.745 355.381 288.119V237.018ZM372.392 293.251C368.389 295.564 363.386 292.673 363.386 288.047V237.018C363.386 232.392 368.389 229.501 372.392 231.814L416.545 257.329C420.547 259.642 420.547 265.424 416.545 267.737L372.392 293.251ZM376.332 310.634C372.33 308.322 372.33 302.539 376.332 300.226L420.571 274.662C424.574 272.349 429.577 275.24 429.577 279.866V330.995C429.577 335.62 424.574 338.512 420.571 336.199L376.332 310.634ZM378.748 388.572C374.745 390.885 369.742 387.993 369.742 383.368V332.356C369.742 327.73 374.745 324.838 378.748 327.151L422.886 352.657C426.889 354.97 426.889 360.753 422.886 363.066L378.748 388.572ZM342.31 310.635C346.313 308.322 346.313 302.539 342.31 300.226L298.196 274.734C294.193 272.421 289.19 275.312 289.19 279.938V330.923C289.19 335.549 294.193 338.44 298.196 336.127L342.31 310.635ZM302.174 353.488C298.172 351.175 298.172 345.392 302.174 343.079L346.375 317.537C350.378 315.225 355.381 318.116 355.381 322.742V373.825C355.381 378.451 350.378 381.343 346.375 379.03L302.174 353.488ZM405.932 358.33C407.802 357.15 408.361 354.676 407.182 352.804C406.002 350.933 403.53 350.373 401.661 351.554L388.548 359.835L385.879 355.051C384.801 353.119 382.363 352.428 380.433 353.507C378.503 354.585 377.812 357.026 378.89 358.958L382.588 365.586C384.266 368.594 388.122 369.577 391.034 367.739L405.932 358.33Z" fill="url(#paint0_linear_303_2)"/>
<defs>
<linearGradient id="paint0_linear_303_2" x1="289.19" y1="231" x2="446.99" y2="375.064" gradientUnits="userSpaceOnUse">
<stop stop-color="#2DFEF5"/>
<stop offset="1" stop-color="#00ACF2"/>
</linearGradient>
</defs>
</svg>
