<svg width="720" height="720" viewBox="0 0 720 720" fill="none" xmlns="http://www.w3.org/2000/svg">
<rect width="720" height="720" fill="white"/>
<path fill-rule="evenodd" clip-rule="evenodd" d="M353.1 234.335C353.1 226.391 344.476 221.426 337.576 225.398L261.358 269.276C254.458 273.249 254.458 283.179 261.358 287.151L337.576 331.029C344.476 335.002 353.1 330.036 353.1 322.092V234.335ZM382.424 330.906C375.524 334.878 366.9 329.913 366.9 321.969V234.335C366.9 226.391 375.524 221.426 382.424 225.398L458.535 269.215C465.435 273.187 465.435 283.117 458.535 287.089L382.424 330.906ZM389.216 360.758C382.317 356.786 382.317 346.856 389.217 342.884L465.476 298.982C472.375 295.01 481 299.975 481 307.919V395.723C481 403.667 472.375 408.633 465.476 404.66L389.216 360.758ZM393.381 494.602C386.481 498.574 377.856 493.609 377.856 485.665V398.061C377.856 390.116 386.481 385.151 393.381 389.123L469.466 432.925C476.366 436.898 476.366 446.828 469.466 450.8L393.381 494.602ZM330.569 360.759C337.469 356.786 337.469 346.856 330.569 342.884L254.524 299.105C247.625 295.133 239 300.099 239 308.043V395.6C239 403.544 247.625 408.509 254.524 404.537L330.569 360.759ZM261.383 434.351C254.483 430.379 254.483 420.449 261.383 416.477L337.576 372.613C344.476 368.641 353.1 373.606 353.1 381.55V469.278C353.1 477.222 344.476 482.187 337.576 478.215L261.383 434.351ZM440.241 442.667C443.464 440.64 444.428 436.391 442.395 433.178C440.361 429.964 436.1 429.003 432.878 431.03L410.274 445.251L405.673 437.036C403.815 433.719 399.612 432.531 396.285 434.384C392.958 436.236 391.767 440.427 393.625 443.745L400 455.129C402.893 460.294 409.54 461.982 414.559 458.825L440.241 442.667Z" fill="url(#paint0_linear_3_66)"/>
<defs>
<linearGradient id="paint0_linear_3_66" x1="239" y1="224" x2="510.085" y2="472.422" gradientUnits="userSpaceOnUse">
<stop stop-color="#2DFEF5"/>
<stop offset="1" stop-color="#00ACF2"/>
</linearGradient>
</defs>
</svg>
