<svg width="720" height="720" viewBox="0 0 720 720" fill="none" xmlns="http://www.w3.org/2000/svg">
<rect width="720" height="720" fill="url(#paint0_linear_3_86)"/>
<path fill-rule="evenodd" clip-rule="evenodd" d="M355.381 237.018C355.381 232.392 350.377 229.501 346.375 231.814L302.16 257.365C298.157 259.677 298.157 265.46 302.16 267.773L346.375 293.323C350.377 295.636 355.381 292.745 355.381 288.119V237.018ZM372.392 293.251C368.389 295.564 363.386 292.673 363.386 288.047V237.018C363.386 232.392 368.389 229.501 372.392 231.814L416.545 257.329C420.547 259.642 420.547 265.424 416.545 267.737L372.392 293.251ZM376.332 310.634C372.33 308.322 372.33 302.539 376.332 300.226L420.571 274.662C424.574 272.349 429.577 275.24 429.577 279.866V330.995C429.577 335.62 424.574 338.512 420.571 336.199L376.332 310.634ZM378.748 388.572C374.745 390.885 369.742 387.993 369.742 383.368V332.356C369.742 327.73 374.745 324.838 378.748 327.151L422.886 352.657C426.889 354.97 426.889 360.753 422.886 363.066L378.748 388.572ZM342.31 310.635C346.313 308.322 346.313 302.539 342.31 300.226L298.195 274.734C294.193 272.421 289.19 275.312 289.19 279.938V330.923C289.19 335.549 294.193 338.44 298.195 336.127L342.31 310.635ZM302.174 353.488C298.172 351.175 298.172 345.392 302.174 343.079L346.375 317.537C350.377 315.225 355.381 318.116 355.381 322.742V373.825C355.381 378.451 350.377 381.343 346.375 379.03L302.174 353.488ZM405.932 358.33C407.802 357.15 408.361 354.676 407.182 352.804C406.002 350.933 403.53 350.373 401.661 351.554L388.548 359.835L385.879 355.051C384.801 353.119 382.363 352.428 380.433 353.507C378.503 354.585 377.812 357.026 378.889 358.958L382.588 365.586C384.266 368.594 388.122 369.577 391.033 367.739L405.932 358.33Z" fill="white"/>
<path d="M202.905 485.197C198.84 485.197 195.039 484.458 191.502 482.98C188.017 481.501 184.955 479.469 182.315 476.882C179.675 474.242 177.616 471.18 176.138 467.695C174.713 464.158 174 460.383 174 456.371C174 452.358 174.713 448.636 176.138 445.205C177.616 441.72 179.649 438.684 182.236 436.097C184.876 433.458 187.938 431.425 191.422 430C194.907 428.521 198.682 427.782 202.747 427.782C206.812 427.782 210.587 428.521 214.072 430C217.556 431.425 220.618 433.458 223.258 436.097C225.898 438.684 227.93 441.72 229.356 445.205C230.834 448.689 231.573 452.438 231.573 456.45C231.573 460.462 230.834 464.211 229.356 467.695C227.93 471.18 225.898 474.242 223.258 476.882C220.671 479.469 217.635 481.501 214.151 482.98C210.666 484.458 206.918 485.197 202.905 485.197ZM202.747 475.14C206.284 475.14 209.373 474.348 212.013 472.764C214.705 471.18 216.791 468.989 218.269 466.191C219.8 463.393 220.565 460.119 220.565 456.371C220.565 453.625 220.117 451.118 219.219 448.848C218.374 446.577 217.16 444.624 215.576 442.987C213.992 441.298 212.118 440.004 209.954 439.107C207.789 438.209 205.387 437.761 202.747 437.761C199.263 437.761 196.174 438.552 193.481 440.136C190.842 441.667 188.756 443.832 187.225 446.63C185.747 449.428 185.008 452.675 185.008 456.371C185.008 459.169 185.43 461.73 186.275 464.053C187.172 466.376 188.387 468.355 189.918 469.992C191.502 471.629 193.376 472.896 195.54 473.793C197.758 474.691 200.16 475.14 202.747 475.14ZM228.01 488.444L202.509 462.944L209.003 456.371L234.583 481.95L228.01 488.444Z" fill="white"/>
<path d="M256.94 485.118C253.561 485.118 250.551 484.405 247.912 482.98C245.325 481.554 243.292 479.574 241.814 477.04C240.336 474.506 239.596 471.576 239.596 468.25V446.076H250.05V468.012C250.05 469.596 250.314 470.969 250.842 472.13C251.37 473.239 252.162 474.084 253.218 474.664C254.274 475.245 255.514 475.536 256.94 475.536C259.104 475.536 260.794 474.876 262.008 473.556C263.222 472.236 263.829 470.388 263.829 468.012V446.076H274.204V468.25C274.204 471.629 273.465 474.585 271.986 477.119C270.561 479.654 268.528 481.633 265.888 483.059C263.302 484.432 260.319 485.118 256.94 485.118Z" fill="white"/>
<path d="M282.465 484.326V446.076H292.919V484.326H282.465ZM287.692 439.899C286.002 439.899 284.603 439.344 283.495 438.236C282.386 437.074 281.832 435.649 281.832 433.959C281.832 432.323 282.386 430.924 283.495 429.762C284.603 428.601 286.002 428.02 287.692 428.02C289.434 428.02 290.833 428.601 291.889 429.762C292.998 430.924 293.552 432.323 293.552 433.959C293.552 435.649 292.998 437.074 291.889 438.236C290.833 439.344 289.434 439.899 287.692 439.899Z" fill="white"/>
<path d="M299.416 478.386L319.69 452.015H332.202L311.929 478.386H299.416ZM299.416 484.326V478.386L307.652 475.298H331.727V484.326H299.416ZM300.842 455.104V446.076H332.202V452.015L323.887 455.104H300.842Z" fill="white"/>
<path d="M336.306 478.386L356.579 452.015H369.092L348.818 478.386H336.306ZM336.306 484.326V478.386L344.542 475.298H368.616V484.326H336.306ZM337.731 455.104V446.076H369.092V452.015L360.776 455.104H337.731Z" fill="white"/>
<path d="M391.189 485.118C387.704 485.118 384.563 484.247 381.765 482.504C378.967 480.762 376.776 478.386 375.192 475.377C373.608 472.368 372.816 468.989 372.816 465.24C372.816 461.439 373.608 458.034 375.192 455.025C376.776 452.015 378.967 449.639 381.765 447.897C384.563 446.155 387.704 445.284 391.189 445.284C393.934 445.284 396.389 445.838 398.554 446.947C400.718 448.056 402.434 449.613 403.701 451.619C405.021 453.573 405.734 455.79 405.84 458.271V472.051C405.734 474.585 405.021 476.829 403.701 478.782C402.434 480.736 400.718 482.293 398.554 483.455C396.389 484.564 393.934 485.118 391.189 485.118ZM393.09 475.536C395.993 475.536 398.343 474.585 400.138 472.685C401.933 470.731 402.83 468.223 402.83 465.161C402.83 463.155 402.408 461.386 401.563 459.855C400.771 458.271 399.636 457.057 398.158 456.212C396.732 455.315 395.043 454.866 393.09 454.866C391.189 454.866 389.499 455.315 388.021 456.212C386.596 457.057 385.461 458.271 384.616 459.855C383.824 461.386 383.428 463.155 383.428 465.161C383.428 467.22 383.824 469.042 384.616 470.626C385.461 472.157 386.596 473.371 388.021 474.268C389.499 475.113 391.189 475.536 393.09 475.536ZM402.276 484.326V474.031L403.939 464.686L402.276 455.5V446.076H412.571V484.326H402.276Z" fill="white"/>
<path d="M422.857 484.326V428.653H433.628V484.326H422.857ZM457.781 484.326V428.653H468.552V484.326H457.781ZM429.668 460.33V450.827H460.791V460.33H429.668Z" fill="white"/>
<path d="M495.137 485.118C491.758 485.118 488.749 484.405 486.109 482.98C483.522 481.554 481.489 479.574 480.011 477.04C478.533 474.506 477.794 471.576 477.794 468.25V446.076H488.247V468.012C488.247 469.596 488.511 470.969 489.039 472.13C489.567 473.239 490.359 474.084 491.415 474.664C492.471 475.245 493.712 475.536 495.137 475.536C497.302 475.536 498.991 474.876 500.205 473.556C501.42 472.236 502.027 470.388 502.027 468.012V446.076H512.401V468.25C512.401 471.629 511.662 474.585 510.184 477.119C508.758 479.654 506.726 481.633 504.086 483.059C501.499 484.432 498.516 485.118 495.137 485.118Z" fill="white"/>
<path d="M526.285 484.326V430.158H536.659V484.326H526.285ZM517.336 455.183V446.076H545.608V455.183H517.336Z" fill="white"/>
<defs>
<linearGradient id="paint0_linear_3_86" x1="0" y1="0" x2="720" y2="741.6" gradientUnits="userSpaceOnUse">
<stop stop-color="#2DFEF5"/>
<stop offset="1" stop-color="#00ACF2"/>
</linearGradient>
</defs>
</svg>
