<svg width="720" height="720" viewBox="0 0 720 720" fill="none" xmlns="http://www.w3.org/2000/svg">
<rect width="720" height="720" fill="white"/>
<path fill-rule="evenodd" clip-rule="evenodd" d="M184.164 299.016C184.164 295.16 179.994 292.751 176.659 294.678L139.809 315.972C136.473 317.9 136.473 322.719 139.809 324.647L176.659 345.941C179.994 347.868 184.164 345.459 184.164 341.604V299.016ZM198.341 345.881C195.006 347.808 190.836 345.399 190.836 341.544V299.016C190.836 295.16 195.006 292.751 198.341 294.678L235.139 315.942C238.475 317.87 238.475 322.689 235.139 324.617L198.341 345.881ZM201.625 360.368C198.29 358.44 198.29 353.621 201.625 351.694L238.494 330.388C241.83 328.461 246 330.87 246 334.726V377.336C246 381.192 241.83 383.601 238.494 381.673L201.625 360.368ZM203.639 425.322C200.303 427.249 196.133 424.84 196.133 420.984V378.471C196.133 374.615 200.303 372.206 203.639 374.133L240.424 395.39C243.76 397.318 243.76 402.137 240.424 404.065L203.639 425.322ZM173.271 360.368C176.607 358.44 176.607 353.621 173.271 351.694L136.506 330.448C133.17 328.521 129 330.93 129 334.785V377.276C129 381.132 133.17 383.541 136.506 381.614L173.271 360.368ZM139.822 396.082C136.486 394.155 136.486 389.336 139.822 387.408L176.659 366.121C179.994 364.193 184.164 366.603 184.164 370.458V413.032C184.164 416.887 179.994 419.297 176.659 417.369L139.822 396.082ZM226.294 400.118C227.852 399.134 228.319 397.072 227.335 395.513C226.352 393.953 224.292 393.487 222.734 394.471L211.806 401.372L209.582 397.385C208.683 395.775 206.651 395.199 205.043 396.098C203.434 396.997 202.858 399.031 203.757 400.641L206.839 406.165C208.238 408.672 211.451 409.491 213.878 407.959L226.294 400.118Z" fill="url(#paint0_linear_3_80)"/>
<path d="M306.09 375.85C302.702 375.85 299.534 375.234 296.586 374.002C293.682 372.77 291.13 371.076 288.93 368.92C286.73 366.72 285.014 364.168 283.782 361.264C282.594 358.316 282 355.17 282 351.826C282 348.482 282.594 345.38 283.782 342.52C285.014 339.616 286.708 337.086 288.864 334.93C291.064 332.73 293.616 331.036 296.52 329.848C299.424 328.616 302.57 328 305.958 328C309.346 328 312.492 328.616 315.396 329.848C318.3 331.036 320.852 332.73 323.052 334.93C325.252 337.086 326.946 339.616 328.134 342.52C329.366 345.424 329.982 348.548 329.982 351.892C329.982 355.236 329.366 358.36 328.134 361.264C326.946 364.168 325.252 366.72 323.052 368.92C320.896 371.076 318.366 372.77 315.462 374.002C312.558 375.234 309.434 375.85 306.09 375.85ZM305.958 367.468C308.906 367.468 311.48 366.808 313.68 365.488C315.924 364.168 317.662 362.342 318.894 360.01C320.17 357.678 320.808 354.95 320.808 351.826C320.808 349.538 320.434 347.448 319.686 345.556C318.982 343.664 317.97 342.036 316.65 340.672C315.33 339.264 313.768 338.186 311.964 337.438C310.16 336.69 308.158 336.316 305.958 336.316C303.054 336.316 300.48 336.976 298.236 338.296C296.036 339.572 294.298 341.376 293.022 343.708C291.79 346.04 291.174 348.746 291.174 351.826C291.174 354.158 291.526 356.292 292.23 358.228C292.978 360.164 293.99 361.814 295.266 363.178C296.586 364.542 298.148 365.598 299.952 366.346C301.8 367.094 303.802 367.468 305.958 367.468ZM327.012 378.556L305.76 357.304L311.172 351.826L332.49 373.144L327.012 378.556Z" fill="#3C3C3C"/>
<path d="M351.123 375.784C348.307 375.784 345.799 375.19 343.599 374.002C341.443 372.814 339.749 371.164 338.517 369.052C337.285 366.94 336.669 364.498 336.669 361.726V343.246H345.381V361.528C345.381 362.848 345.601 363.992 346.041 364.96C346.481 365.884 347.141 366.588 348.021 367.072C348.901 367.556 349.935 367.798 351.123 367.798C352.927 367.798 354.335 367.248 355.347 366.148C356.359 365.048 356.865 363.508 356.865 361.528V343.246H365.511V361.726C365.511 364.542 364.895 367.006 363.663 369.118C362.475 371.23 360.781 372.88 358.581 374.068C356.425 375.212 353.939 375.784 351.123 375.784Z" fill="#3C3C3C"/>
<path d="M372.396 375.124V343.246H381.108V375.124H372.396ZM376.752 338.098C375.344 338.098 374.178 337.636 373.254 336.712C372.33 335.744 371.868 334.556 371.868 333.148C371.868 331.784 372.33 330.618 373.254 329.65C374.178 328.682 375.344 328.198 376.752 328.198C378.204 328.198 379.37 328.682 380.25 329.65C381.174 330.618 381.636 331.784 381.636 333.148C381.636 334.556 381.174 335.744 380.25 336.712C379.37 337.636 378.204 338.098 376.752 338.098Z" fill="#3C3C3C"/>
<path d="M386.523 370.174L403.419 348.196H413.847L396.951 370.174H386.523ZM386.523 375.124V370.174L393.387 367.6H413.451V375.124H386.523ZM387.711 350.77V343.246H413.847V348.196L406.917 350.77H387.711Z" fill="#3C3C3C"/>
<path d="M417.267 370.174L434.163 348.196H444.591L427.695 370.174H417.267ZM417.267 375.124V370.174L424.131 367.6H444.195V375.124H417.267ZM418.455 350.77V343.246H444.591V348.196L437.661 350.77H418.455Z" fill="#3C3C3C"/>
<path d="M463.007 375.784C460.103 375.784 457.485 375.058 455.153 373.606C452.821 372.154 450.995 370.174 449.675 367.666C448.355 365.158 447.695 362.342 447.695 359.218C447.695 356.05 448.355 353.212 449.675 350.704C450.995 348.196 452.821 346.216 455.153 344.764C457.485 343.312 460.103 342.586 463.007 342.586C465.295 342.586 467.341 343.048 469.145 343.972C470.949 344.896 472.379 346.194 473.435 347.866C474.535 349.494 475.129 351.342 475.217 353.41V364.894C475.129 367.006 474.535 368.876 473.435 370.504C472.379 372.132 470.949 373.43 469.145 374.398C467.341 375.322 465.295 375.784 463.007 375.784ZM464.591 367.798C467.011 367.798 468.969 367.006 470.465 365.422C471.961 363.794 472.709 361.704 472.709 359.152C472.709 357.48 472.357 356.006 471.653 354.73C470.993 353.41 470.047 352.398 468.815 351.694C467.627 350.946 466.219 350.572 464.591 350.572C463.007 350.572 461.599 350.946 460.367 351.694C459.179 352.398 458.233 353.41 457.529 354.73C456.869 356.006 456.539 357.48 456.539 359.152C456.539 360.868 456.869 362.386 457.529 363.706C458.233 364.982 459.179 365.994 460.367 366.742C461.599 367.446 463.007 367.798 464.591 367.798ZM472.247 375.124V366.544L473.633 358.756L472.247 351.1V343.246H480.827V375.124H472.247Z" fill="#3C3C3C"/>
<path d="M489.4 375.124V328.726H498.376V375.124H489.4ZM518.506 375.124V328.726H527.482V375.124H518.506ZM495.076 355.126V347.206H521.014V355.126H495.076Z" fill="#3C3C3C"/>
<path d="M549.638 375.784C546.822 375.784 544.314 375.19 542.114 374.002C539.958 372.814 538.264 371.164 537.032 369.052C535.8 366.94 535.184 364.498 535.184 361.726V343.246H543.896V361.528C543.896 362.848 544.116 363.992 544.556 364.96C544.996 365.884 545.656 366.588 546.536 367.072C547.416 367.556 548.45 367.798 549.638 367.798C551.442 367.798 552.85 367.248 553.862 366.148C554.874 365.048 555.38 363.508 555.38 361.528V343.246H564.026V361.726C564.026 364.542 563.41 367.006 562.178 369.118C560.99 371.23 559.296 372.88 557.096 374.068C554.94 375.212 552.454 375.784 549.638 375.784Z" fill="#3C3C3C"/>
<path d="M575.597 375.124V329.98H584.243V375.124H575.597ZM568.139 350.836V343.246H591.701V350.836H568.139Z" fill="#3C3C3C"/>
<defs>
<linearGradient id="paint0_linear_3_80" x1="129" y1="294" x2="260.512" y2="414.064" gradientUnits="userSpaceOnUse">
<stop stop-color="#2DFEF5"/>
<stop offset="1" stop-color="#00ACF2"/>
</linearGradient>
</defs>
</svg>
