<svg width="198" height="42" viewBox="0 0 198 42" fill="none" xmlns="http://www.w3.org/2000/svg">
<path d="M25.0231 36.7264H28.4819V42H14.7534V36.7264H18.5325L18.5111 24.2671L18.6606 22.2501V20.9265L18.5111 18.09V14.6653L24.7669 9.3917H25.0231V36.7264ZM12.1699 9.55978C13.8922 9.55978 15.4793 9.82591 16.9312 10.3582C18.3972 10.8764 19.6641 11.6608 20.7316 12.7114C21.8134 13.7479 22.6532 15.0435 23.251 16.5983L18.6606 21.6198C18.6606 20.3312 18.4257 19.2036 17.956 18.2371C17.4863 17.2566 16.8031 16.4932 15.9063 15.947C15.0096 15.3867 13.9349 15.1066 12.6824 15.1066C11.3871 15.1066 10.2911 15.3727 9.39434 15.905C8.51184 16.4372 7.83573 17.1936 7.36601 18.1741C6.91053 19.1546 6.68279 20.3102 6.68279 21.6408C6.68279 22.9295 6.93188 24.064 7.43007 25.0445C7.92825 26.011 8.62571 26.7674 9.52244 27.3137C10.4192 27.8459 11.4725 28.1121 12.6824 28.1121C13.9207 28.1121 14.9882 27.8459 15.885 27.3137C16.7817 26.7674 17.4649 26.011 17.9346 25.0445C18.4186 24.064 18.6606 22.9225 18.6606 21.6198L19.3011 26.7044H18.2976C18.0129 28.1891 17.5503 29.4497 16.9098 30.4862C16.2693 31.5088 15.4224 32.3002 14.3691 32.8604C13.33 33.4067 12.0703 33.6798 10.59 33.6798C8.96732 33.6798 7.50124 33.3647 6.19172 32.7344C4.89644 32.1041 3.7862 31.2356 2.861 30.1291C1.9358 29.0225 1.22411 27.7409 0.725926 26.2841C0.241975 24.8274 0 23.2586 0 21.5778C0 19.1406 0.505301 17.0255 1.5159 15.2326C2.52651 13.4257 3.94277 12.032 5.76471 11.0515C7.58664 10.057 9.72172 9.55978 12.1699 9.55978Z" fill="black"/>
<path d="M43.4765 33.6798C40.8717 33.6798 38.6014 33.1756 36.6656 32.1671C34.7298 31.1446 33.221 29.7369 32.1392 27.944C31.0717 26.1371 30.5379 24.05 30.5379 21.6828C30.5379 19.2876 31.0717 17.1796 32.1392 15.3587C33.221 13.5378 34.7298 12.1161 36.6656 11.0935C38.6014 10.071 40.8717 9.55978 43.4765 9.55978C46.0671 9.55978 48.3302 10.071 50.266 11.0935C52.2161 12.1161 53.7249 13.5378 54.7924 15.3587C55.8599 17.1796 56.3937 19.2876 56.3937 21.6828C56.3937 24.05 55.8599 26.1371 54.7924 27.944C53.7249 29.7369 52.2232 31.1446 50.2874 32.1671C48.3516 33.1756 46.0813 33.6798 43.4765 33.6798ZM43.4765 28.028C44.7006 28.028 45.7753 27.7689 46.7005 27.2506C47.6399 26.7184 48.3729 25.976 48.8996 25.0235C49.4262 24.071 49.6896 22.9505 49.6896 21.6618C49.6896 20.3872 49.4262 19.2666 48.8996 18.3001C48.3729 17.3197 47.6399 16.5563 46.7005 16.01C45.7753 15.4637 44.7006 15.1906 43.4765 15.1906C42.2524 15.1906 41.1706 15.4637 40.2312 16.01C39.306 16.5563 38.5801 17.3197 38.0534 18.3001C37.5268 19.2666 37.2634 20.3872 37.2634 21.6618C37.2634 22.9505 37.5268 24.071 38.0534 25.0235C38.5801 25.976 39.306 26.7184 40.2312 27.2506C41.1706 27.7689 42.2524 28.028 43.4765 28.028Z" fill="black"/>
<path d="M69.5191 27.944H73.042V33.1966H59.3561V27.944H63.0285V5.25263H59.3561V0H69.5191V27.944Z" fill="black"/>
<path d="M85.9642 27.944H89.4871V33.1966H75.8012V27.944H79.4735V5.25263H75.8012V0H85.9642V27.944Z" fill="black"/>
<path d="M111.547 33.1966C110.608 33.1966 109.882 32.9235 109.37 32.3772C108.871 31.8169 108.622 31.0325 108.622 30.024V25.0445L109.071 24.2041L108.815 21.6828L108.622 20.2751V18.4472C108.622 17.6488 108.452 16.9905 108.11 16.4722C107.768 15.94 107.27 15.5478 106.615 15.2956C105.975 15.0435 105.199 14.9175 104.288 14.9175C103.007 14.9175 101.961 15.1766 101.15 15.6948C100.352 16.1991 99.833 17.0045 99.591 18.1111L93.6128 17.2076C93.869 15.5688 94.4312 14.1751 95.2995 13.0265C96.1677 11.8779 97.3847 11.0025 98.9505 10.4002C100.516 9.7979 102.473 9.49675 104.822 9.49675C107.028 9.49675 108.893 9.78389 110.416 10.3582C111.953 10.9185 113.12 11.8009 113.917 13.0055C114.714 14.2101 115.113 15.7649 115.113 17.6698V27.923H117.931V33.1966H111.547ZM100.381 33.6168C97.9185 33.6168 96.0539 33.0565 94.7871 31.936C93.5202 30.8154 92.8868 29.2326 92.8868 27.1876C92.8868 25.1986 93.5202 23.6858 94.7871 22.6493C96.0539 21.5988 98.0395 20.8354 100.744 20.3592L109.818 18.6783V21.7879L102.623 23.3007C101.598 23.4967 100.851 23.8329 100.381 24.3092C99.9112 24.7714 99.6764 25.3877 99.6764 26.1581C99.6764 26.9845 99.9397 27.6148 100.466 28.049C101.007 28.4832 101.776 28.7004 102.772 28.7004C103.911 28.7004 104.936 28.4202 105.847 27.8599C106.772 27.2997 107.498 26.5013 108.025 25.4647C108.551 24.4142 108.815 23.1536 108.815 21.6828L109.882 26.6203H108.43C108.117 28.9595 107.27 30.7104 105.889 31.8729C104.509 33.0355 102.673 33.6168 100.381 33.6168Z" fill="black"/>
<path d="M123.089 33.8059V5.25263H119.544V0H129.579V18.3422L129.451 20.6323V23.931L129.579 28.5323L123.345 33.8059H123.089ZM135.942 33.6798C134.219 33.6798 132.625 33.4207 131.159 32.9025C129.707 32.3702 128.44 31.5858 127.359 30.5493C126.291 29.4988 125.466 28.1961 124.882 26.6413L129.451 21.6198C129.451 22.8944 129.686 24.022 130.156 25.0025C130.625 25.969 131.309 26.7324 132.205 27.2926C133.102 27.8389 134.184 28.1121 135.451 28.1121C136.732 28.1121 137.813 27.8459 138.696 27.3137C139.593 26.7674 140.269 26.011 140.724 25.0445C141.194 24.064 141.429 22.9085 141.429 21.5778C141.429 20.2891 141.18 19.1616 140.682 18.1951C140.183 17.2286 139.486 16.4722 138.589 15.926C137.692 15.3797 136.646 15.1066 135.451 15.1066C134.198 15.1066 133.123 15.3797 132.227 15.926C131.33 16.4722 130.64 17.2356 130.156 18.2161C129.686 19.1826 129.451 20.3172 129.451 21.6198L128.811 16.5143H129.814C130.099 15.0435 130.561 13.7899 131.202 12.7534C131.842 11.7169 132.682 10.9255 133.721 10.3792C134.774 9.83292 136.041 9.55978 137.522 9.55978C139.144 9.55978 140.603 9.87494 141.899 10.5053C143.208 11.1216 144.325 11.983 145.251 13.0895C146.176 14.1961 146.88 15.4847 147.364 16.9555C147.863 18.4122 148.112 19.974 148.112 21.6408C148.112 24.078 147.606 26.2001 146.596 28.007C145.599 29.8139 144.183 31.2146 142.347 32.2091C140.525 33.1896 138.39 33.6798 135.942 33.6798Z" fill="black"/>
<path d="M162.353 27.944H165.726V33.1966H152.19V27.944H155.862V15.2956H152.19V10.043H162.353V27.944ZM170.402 16.2411C170.16 16.1711 169.89 16.1221 169.591 16.094C169.306 16.052 168.993 16.031 168.651 16.031C166.673 16.031 165.128 16.5983 164.018 17.7329C162.908 18.8674 162.353 20.4852 162.353 22.5863L161.221 16.8924H162.588C162.744 15.2956 163.093 13.965 163.634 12.9005C164.189 11.8219 164.929 11.0165 165.854 10.4842C166.78 9.95197 167.876 9.68584 169.142 9.68584C169.384 9.68584 169.605 9.69985 169.804 9.72786C170.018 9.74187 170.217 9.76989 170.402 9.81191V16.2411Z" fill="black"/>
<path d="M191.616 33.1966C190.677 33.1966 189.951 32.9235 189.438 32.3772C188.94 31.8169 188.691 31.0325 188.691 30.024V25.0445L189.139 24.2041L188.883 21.6828L188.691 20.2751V18.4472C188.691 17.6488 188.52 16.9905 188.179 16.4722C187.837 15.94 187.339 15.5478 186.684 15.2956C186.044 15.0435 185.268 14.9175 184.357 14.9175C183.076 14.9175 182.03 15.1766 181.218 15.6948C180.421 16.1991 179.902 17.0045 179.66 18.1111L173.681 17.2076C173.938 15.5688 174.5 14.1751 175.368 13.0265C176.236 11.8779 177.453 11.0025 179.019 10.4002C180.585 9.7979 182.542 9.49675 184.891 9.49675C187.097 9.49675 188.962 9.78389 190.485 10.3582C192.022 10.9185 193.189 11.8009 193.986 13.0055C194.783 14.2101 195.182 15.7649 195.182 17.6698V27.923H198V33.1966H191.616ZM180.45 33.6168C177.987 33.6168 176.123 33.0565 174.856 31.936C173.589 30.8154 172.956 29.2326 172.956 27.1876C172.956 25.1986 173.589 23.6858 174.856 22.6493C176.123 21.5988 178.108 20.8354 180.813 20.3592L189.887 18.6783V21.7879L182.691 23.3007C181.667 23.4967 180.919 23.8329 180.45 24.3092C179.98 24.7714 179.745 25.3877 179.745 26.1581C179.745 26.9845 180.008 27.6148 180.535 28.049C181.076 28.4832 181.845 28.7004 182.841 28.7004C183.98 28.7004 185.005 28.4202 185.915 27.8599C186.841 27.2997 187.567 26.5013 188.093 25.4647C188.62 24.4142 188.883 23.1536 188.883 21.6828L189.951 26.6203H188.499C188.186 28.9595 187.339 30.7104 185.958 31.8729C184.577 33.0355 182.741 33.6168 180.45 33.6168Z" fill="black"/>
</svg>
