<svg width="243" height="273" viewBox="0 0 243 273" fill="none" xmlns="http://www.w3.org/2000/svg">
<path fill-rule="evenodd" clip-rule="evenodd" d="M114.709 10.9287C114.709 2.98442 106.084 -1.9807 99.1844 1.99141L22.9661 45.8699C16.0664 49.842 16.0664 59.7723 22.9661 63.7444L99.1844 107.623C106.084 111.595 114.709 106.63 114.709 98.6856V10.9287ZM144.032 107.499C137.133 111.471 128.508 106.506 128.508 98.5621V10.9286C128.508 2.98442 137.133 -1.9807 144.032 1.99141L220.144 45.8082C227.043 49.7803 227.043 59.7106 220.144 63.6827L144.032 107.499ZM150.825 137.352C143.925 133.38 143.925 123.449 150.825 119.477L227.084 75.5754C233.984 71.6033 242.608 76.5685 242.608 84.5127V172.317C242.608 180.261 233.984 185.226 227.084 181.254L150.825 137.352ZM154.989 271.195C148.089 275.168 139.465 270.202 139.465 262.258V174.654C139.465 166.71 148.089 161.745 154.989 165.717L231.075 209.519C237.974 213.491 237.974 223.421 231.075 227.393L154.989 271.195ZM92.1775 137.352C99.0772 133.38 99.0772 123.45 92.1775 119.477L16.1327 75.6989C9.23301 71.7268 0.608398 76.6919 0.608398 84.6361V172.193C0.608398 180.137 9.23301 185.103 16.1327 181.13L92.1775 137.352ZM22.9915 210.945C16.0918 206.973 16.0918 197.042 22.9915 193.07L99.1844 149.207C106.084 145.234 114.709 150.2 114.709 158.144V245.871C114.709 253.816 106.084 258.781 99.1844 254.809L22.9915 210.945ZM201.85 219.261C205.072 217.233 206.037 212.985 204.003 209.771C201.97 206.558 197.709 205.596 194.486 207.624L171.882 221.845L167.281 213.63C165.424 210.312 161.22 209.125 157.893 210.977C154.566 212.83 153.375 217.021 155.233 220.338L161.608 231.722C164.501 236.888 171.149 238.576 176.167 235.418L201.85 219.261Z" fill="url(#paint0_linear_502_18)"/>
<defs>
<linearGradient id="paint0_linear_502_18" x1="0.608398" y1="0.593414" x2="271.693" y2="249.015" gradientUnits="userSpaceOnUse">
<stop stop-color="#2DFEF5"/>
<stop offset="1" stop-color="#00ACF2"/>
</linearGradient>
</defs>
</svg>
