<svg width="242" height="272" viewBox="0 0 242 272" fill="none" xmlns="http://www.w3.org/2000/svg">
<path fill-rule="evenodd" clip-rule="evenodd" d="M114.1 10.8871C114.1 2.9748 105.476 -1.97034 98.576 1.98579L22.3577 45.6877C15.458 49.6438 15.458 59.5341 22.3577 63.4903L98.576 107.192C105.476 111.148 114.1 106.203 114.1 98.2908V10.8871ZM143.424 107.069C136.524 111.025 127.9 106.08 127.9 98.1679V10.8871C127.9 2.9748 136.524 -1.97034 143.424 1.98579L219.535 45.6262C226.435 49.5824 226.435 59.4727 219.535 63.4288L143.424 107.069ZM150.216 136.801C143.317 132.845 143.317 122.955 150.217 118.999L226.476 75.2737C233.375 71.3176 242 76.2627 242 84.175V171.626C242 179.538 233.375 184.483 226.476 180.527L150.216 136.801ZM154.381 270.106C147.481 274.063 138.856 269.117 138.856 261.205V173.954C138.856 166.041 147.481 161.096 154.381 165.052L230.466 208.678C237.366 212.634 237.366 222.525 230.466 226.481L154.381 270.106ZM91.5691 136.802C98.4688 132.845 98.4688 122.955 91.5691 118.999L15.5243 75.3966C8.62461 71.4405 0 76.3857 0 84.2979V171.503C0 179.415 8.62461 184.36 15.5243 180.404L91.5691 136.802ZM22.3831 210.098C15.4834 206.142 15.4834 196.252 22.3831 192.296L98.576 148.608C105.476 144.652 114.1 149.597 114.1 157.51V244.884C114.1 252.797 105.476 257.742 98.576 253.786L22.3831 210.098ZM201.241 218.381C204.464 216.362 205.428 212.13 203.395 208.929C201.361 205.729 197.1 204.771 193.878 206.791L171.274 220.954L166.673 212.772C164.815 209.468 160.612 208.285 157.285 210.131C153.958 211.976 152.767 216.15 154.625 219.454L161 230.792C163.893 235.937 170.54 237.618 175.559 234.473L201.241 218.381Z" fill="white"/>
</svg>
