<svg width="142" height="159" viewBox="0 0 142 159" fill="none" xmlns="http://www.w3.org/2000/svg">
<path fill-rule="evenodd" clip-rule="evenodd" d="M66.9804 6.24534C66.9804 1.62653 61.9804 -1.26021 57.9804 1.04919L13.7939 26.5603C9.79388 28.8697 9.79388 34.6432 13.7939 36.9526L57.9804 62.4637C61.9804 64.7731 66.9804 61.8864 66.9804 57.2676V6.24534ZM83.9804 62.3919C79.9804 64.7013 74.9804 61.8146 74.9804 57.1958V6.24533C74.9804 1.62653 79.9804 -1.26021 83.9804 1.04919L128.105 26.5244C132.105 28.8338 132.105 34.6073 128.105 36.9167L83.9804 62.3919ZM87.9183 79.7483C83.9183 77.4389 83.9183 71.6654 87.9183 69.356L132.128 43.8312C136.128 41.5218 141.128 44.4086 141.128 49.0274V100.077C141.128 104.696 136.128 107.582 132.128 105.273L87.9183 79.7483ZM90.3323 157.565C86.3323 159.875 81.3323 156.988 81.3323 152.369V101.436C81.3323 96.8171 86.3323 93.9304 90.3323 96.2398L134.442 121.706C138.442 124.016 138.442 129.789 134.442 132.099L90.3323 157.565ZM53.9182 79.7483C57.9182 77.4389 57.9182 71.6654 53.9182 69.356L9.83234 43.903C5.83234 41.5936 0.832336 44.4804 0.832336 49.0992V100.005C0.832336 104.624 5.83234 107.511 9.83234 105.201L53.9182 79.7483ZM13.8086 122.536C9.80865 120.226 9.80864 114.453 13.8086 112.143L57.9804 86.6406C61.9804 84.3312 66.9804 87.218 66.9804 91.8368V142.842C66.9804 147.461 61.9804 150.348 57.9804 148.038L13.8086 122.536ZM117.499 127.371C119.367 126.192 119.926 123.721 118.748 121.853C117.569 119.985 115.099 119.426 113.23 120.605L100.126 128.873L97.4587 124.097C96.3816 122.168 93.9449 121.477 92.0161 122.554C90.0873 123.631 89.3969 126.068 90.4739 127.997L94.1699 134.616C95.847 137.619 99.7008 138.6 102.61 136.765L117.499 127.371Z" fill="#C4C4C4"/>
</svg>
