<svg width="589" height="127" viewBox="0 0 589 127" fill="none" xmlns="http://www.w3.org/2000/svg">
<path d="M74.4374 111.054H84.7265V127H43.8876V111.054H55.1294L55.0659 73.3792L55.5105 67.2801V63.2776L55.0659 54.7008V44.3452L73.6752 28.3987H74.4374V111.054ZM36.2025 28.907C41.3259 28.907 46.047 29.7117 50.3659 31.3212C54.7272 32.8883 58.4956 35.2601 61.6713 38.4367C64.8893 41.5709 67.3874 45.4887 69.1658 50.1901L55.5105 65.3742C55.5105 61.4776 54.8118 58.068 53.4146 55.1456C52.0173 52.1808 49.9848 49.8724 47.3173 48.2206C44.6497 46.5264 41.4529 45.6793 37.7268 45.6793C33.8737 45.6793 30.6133 46.4841 27.9458 48.0935C25.3206 49.703 23.3093 51.9902 21.912 54.955C20.5571 57.9198 19.8796 61.414 19.8796 65.4377C19.8796 69.3343 20.6206 72.765 22.1026 75.7299C23.5845 78.6523 25.6593 80.9395 28.3269 82.5913C30.9944 84.2008 34.1277 85.0055 37.7268 85.0055C41.4106 85.0055 44.5862 84.2008 47.2538 82.5913C49.9213 80.9395 51.9537 78.6523 53.351 75.7299C54.7907 72.765 55.5105 69.3132 55.5105 65.3742L57.4159 80.7489H54.4308C53.5839 85.2385 52.2078 89.0504 50.3024 92.1846C48.397 95.2765 45.8777 97.6695 42.7443 99.3637C39.6534 101.016 35.9061 101.841 31.5025 101.841C26.6755 101.841 22.3143 100.888 18.4188 98.9825C14.5657 97.0765 11.263 94.4506 8.51076 91.1046C5.75852 87.7585 3.64142 83.8831 2.15945 79.4782C0.719816 75.0734 0 70.3297 0 65.2471C0 57.8774 1.50314 51.4819 4.50943 46.0605C7.51572 40.5968 11.7288 36.3825 17.1485 33.4177C22.5683 30.4105 28.9196 28.907 36.2025 28.907Z" fill="black"/>
<path d="M129.332 101.841C121.583 101.841 114.829 100.317 109.071 97.2671C103.312 94.1753 98.8241 89.9186 95.6061 84.4972C92.4305 79.0335 90.8426 72.7227 90.8426 65.5648C90.8426 58.3222 92.4305 51.9478 95.6061 46.4417C98.8241 40.9356 103.312 36.6367 109.071 33.5448C114.829 30.4529 121.583 28.907 129.332 28.907C137.038 28.907 143.77 30.4529 149.529 33.5448C155.33 36.6367 159.818 40.9356 162.994 46.4417C166.169 51.9478 167.757 58.3222 167.757 65.5648C167.757 72.7227 166.169 79.0335 162.994 84.4972C159.818 89.9186 155.351 94.1753 149.592 97.2671C143.834 100.317 137.08 101.841 129.332 101.841ZM129.332 84.7514C132.973 84.7514 136.17 83.9678 138.922 82.4007C141.717 80.7912 143.897 78.5464 145.464 75.6663C147.031 72.7862 147.814 69.3979 147.814 65.5013C147.814 61.647 147.031 58.2586 145.464 55.3362C143.897 52.3713 141.717 50.063 138.922 48.4112C136.17 46.7594 132.973 45.9335 129.332 45.9335C125.69 45.9335 122.472 46.7594 119.678 48.4112C116.925 50.063 114.766 52.3713 113.199 55.3362C111.633 58.2586 110.849 61.647 110.849 65.5013C110.849 69.3979 111.633 72.7862 113.199 75.6663C114.766 78.5464 116.925 80.7912 119.678 82.4007C122.472 83.9678 125.69 84.7514 129.332 84.7514Z" fill="black"/>
<path d="M206.802 84.4972H217.281V100.38H176.569V84.4972H187.494V15.8829H176.569V0H206.802V84.4972Z" fill="black"/>
<path d="M255.722 84.4972H266.201V100.38H225.489V84.4972H236.414V15.8829H225.489V0H255.722V84.4972Z" fill="black"/>
<path d="M331.825 100.38C329.031 100.38 326.871 99.5543 325.347 97.9025C323.865 96.2083 323.124 93.8364 323.124 90.7869V75.7299L324.458 73.1886L323.696 65.5648L323.124 61.3082V55.7809C323.124 53.3667 322.616 51.376 321.6 49.8089C320.584 48.1994 319.102 47.0135 317.154 46.2511C315.248 45.4887 312.941 45.1076 310.231 45.1076C306.42 45.1076 303.308 45.8911 300.894 47.4582C298.523 48.983 296.978 51.4184 296.258 54.7644L278.474 52.0325C279.237 47.077 280.909 42.8628 283.492 39.3897C286.075 35.9166 289.695 33.2695 294.353 31.4482C299.01 29.627 304.832 28.7164 311.819 28.7164C318.382 28.7164 323.929 29.5846 328.459 31.3212C333.032 33.0153 336.504 35.6837 338.875 39.3262C341.246 42.9687 342.432 47.67 342.432 53.4302V84.4337H350.816V100.38H331.825ZM298.608 101.651C291.283 101.651 285.736 99.9566 281.968 96.5683C278.199 93.1799 276.315 88.3939 276.315 82.2101C276.315 76.1958 278.199 71.6215 281.968 68.4872C285.736 65.3107 291.643 63.0023 299.688 61.5623L326.681 56.4797V65.8824L305.277 70.4567C302.228 71.0497 300.005 72.0662 298.608 73.5062C297.211 74.904 296.512 76.7675 296.512 79.097C296.512 81.596 297.295 83.5019 298.862 84.8149C300.471 86.1279 302.758 86.7844 305.721 86.7844C309.109 86.7844 312.157 85.9373 314.867 84.2431C317.62 82.5489 319.779 80.1347 321.346 77.0005C322.912 73.8239 323.696 70.012 323.696 65.5648L326.871 80.4947H322.552C321.621 87.5679 319.102 92.8623 314.994 96.3777C310.887 99.8931 305.425 101.651 298.608 101.651Z" fill="black"/>
<path d="M366.157 102.223V15.8829H355.614V0H385.465V55.4632L385.084 62.3882V72.3627L385.465 86.2761L366.919 102.223H366.157ZM404.392 101.841C399.269 101.841 394.526 101.058 390.165 99.4907C385.846 97.8813 382.078 95.5094 378.86 92.3752C375.684 89.1986 373.228 85.2596 371.492 80.5583L385.084 65.3742C385.084 69.2284 385.783 72.638 387.18 75.6028C388.577 78.5253 390.61 80.8336 393.277 82.5278C395.945 84.1796 399.163 85.0055 402.931 85.0055C406.742 85.0055 409.96 84.2008 412.585 82.5913C415.253 80.9395 417.264 78.6523 418.619 75.7299C420.016 72.765 420.715 69.2708 420.715 65.2471C420.715 61.3505 419.974 57.941 418.492 55.0185C417.01 52.096 414.935 49.8089 412.268 48.1571C409.6 46.5053 406.488 45.6793 402.931 45.6793C399.205 45.6793 396.008 46.5053 393.341 48.1571C390.673 49.8089 388.62 52.1172 387.18 55.082C385.783 58.0045 385.084 61.4352 385.084 65.3742L383.179 49.936H386.164C387.011 45.4887 388.387 41.698 390.292 38.5638C392.198 35.4295 394.696 33.0365 397.787 31.3847C400.92 29.7329 404.689 28.907 409.092 28.907C413.919 28.907 418.259 29.8599 422.112 31.7659C426.008 33.6295 429.332 36.2343 432.084 39.5803C434.836 42.9263 436.932 46.8229 438.372 51.2701C439.854 55.675 440.595 60.3975 440.595 65.4377C440.595 72.8074 439.091 79.2241 436.085 84.6878C433.121 90.1516 428.908 94.387 423.446 97.3942C418.026 100.359 411.675 101.841 404.392 101.841Z" fill="black"/>
<path d="M482.959 84.4972H492.994V100.38H452.727V84.4972H463.651V46.2511H452.727V30.3682H482.959V84.4972ZM506.903 49.1101C506.184 48.8983 505.379 48.75 504.49 48.6653C503.643 48.5383 502.711 48.4747 501.695 48.4747C495.81 48.4747 491.216 50.1901 487.913 53.6208C484.61 57.0515 482.959 61.9435 482.959 68.2966L479.593 51.0795H483.658C484.123 46.2511 485.161 42.2274 486.77 39.0085C488.421 35.7472 490.623 33.3118 493.375 31.7023C496.127 30.0929 499.388 29.2881 503.156 29.2881C503.876 29.2881 504.532 29.3305 505.125 29.4152C505.76 29.4576 506.353 29.5423 506.903 29.6693V49.1101Z" fill="black"/>
<path d="M570.01 100.38C567.215 100.38 565.056 99.5543 563.531 97.9025C562.049 96.2083 561.308 93.8364 561.308 90.7869V75.7299L562.642 73.1886L561.88 65.5648L561.308 61.3082V55.7809C561.308 53.3667 560.8 51.376 559.784 49.8089C558.768 48.1994 557.286 47.0135 555.338 46.2511C553.433 45.4887 551.125 45.1076 548.415 45.1076C544.604 45.1076 541.492 45.8911 539.079 47.4582C536.708 48.983 535.162 51.4184 534.442 54.7644L516.659 52.0325C517.421 47.077 519.093 42.8628 521.676 39.3897C524.259 35.9166 527.879 33.2695 532.537 31.4482C537.194 29.627 543.016 28.7164 550.003 28.7164C556.566 28.7164 562.113 29.5846 566.643 31.3212C571.216 33.0153 574.688 35.6837 577.06 39.3262C579.431 42.9687 580.616 47.67 580.616 53.4302V84.4337H589V100.38H570.01ZM536.792 101.651C529.467 101.651 523.92 99.9566 520.152 96.5683C516.383 93.1799 514.499 88.3939 514.499 82.2101C514.499 76.1958 516.383 71.6215 520.152 68.4872C523.92 65.3107 529.827 63.0023 537.872 61.5623L564.865 56.4797V65.8824L543.461 70.4567C540.412 71.0497 538.189 72.0662 536.792 73.5062C535.395 74.904 534.696 76.7675 534.696 79.097C534.696 81.596 535.48 83.5019 537.046 84.8149C538.655 86.1279 540.942 86.7844 543.906 86.7844C547.293 86.7844 550.342 85.9373 553.052 84.2431C555.804 82.5489 557.963 80.1347 559.53 77.0005C561.097 73.8239 561.88 70.012 561.88 65.5648L565.055 80.4947H560.737C559.805 87.5679 557.286 92.8623 553.179 96.3777C549.071 99.8931 543.609 101.651 536.792 101.651Z" fill="black"/>
</svg>
