<svg width="371" height="432" viewBox="0 0 371 432" fill="none" xmlns="http://www.w3.org/2000/svg">
<path d="M325.946 362.134H371V432H192.175V362.134H241.4L241.122 197.072L243.069 170.351V152.814L241.122 115.237V69.866L322.609 0H325.946V362.134ZM158.523 2.22682C180.958 2.22682 201.63 5.75258 220.542 12.8041C239.639 19.6701 256.14 30.0618 270.046 43.9794C284.137 57.7113 295.076 74.8763 302.863 95.4742L243.069 162C243.069 144.928 240.01 129.99 233.891 117.186C227.773 104.196 218.873 94.0825 207.193 86.8454C195.512 79.4227 181.514 75.7113 165.198 75.7113C148.326 75.7113 134.049 79.2371 122.369 86.2887C110.874 93.3402 102.067 103.361 95.9483 116.351C90.0152 129.34 87.0487 144.649 87.0487 162.278C87.0487 179.35 90.2934 194.381 96.7826 207.371C103.272 220.175 112.357 230.196 124.037 237.433C135.718 244.485 149.438 248.01 165.198 248.01C181.328 248.01 195.234 244.485 206.915 237.433C218.595 230.196 227.495 220.175 233.613 207.371C239.917 194.381 243.069 179.258 243.069 162L251.412 229.361H238.341C234.633 249.031 228.607 265.732 220.264 279.464C211.921 293.01 200.889 303.495 187.169 310.918C173.634 318.155 157.225 321.773 137.943 321.773C116.807 321.773 97.7096 317.598 80.6522 309.247C63.7801 300.897 49.3183 289.392 37.2669 274.732C25.2154 260.072 15.945 243.093 9.45577 223.794C3.15192 204.495 0 183.711 0 161.443C0 129.155 6.58196 101.134 19.7459 77.3814C32.9098 53.4433 51.3578 34.9794 75.0899 21.9897C98.8221 8.81444 126.633 2.22682 158.523 2.22682Z" fill="black"/>
</svg>
