<svg width="1674" height="362" viewBox="0 0 1674 362" fill="none" xmlns="http://www.w3.org/2000/svg">
<path d="M212.226 316.008H241.437V361.281H125.492V316.008H157.409L157.228 209.048L158.491 191.732V180.369L157.228 156.019V126.618L210.062 81.3447H212.226V316.008ZM103.674 82.7877C118.219 82.7877 131.623 85.0724 143.885 89.6418C156.267 94.091 166.966 100.825 175.981 109.843C185.118 118.742 192.21 129.865 197.259 143.212L158.491 186.321C158.491 175.258 156.507 165.578 152.54 157.281C148.573 148.864 142.803 142.31 135.229 137.621C127.656 132.811 118.58 130.406 108.001 130.406C97.062 130.406 87.8057 132.69 80.2323 137.26C72.7791 141.829 67.069 148.323 63.102 156.74C59.2552 165.157 57.3318 175.078 57.3318 186.501C57.3318 197.564 59.4355 207.304 63.643 215.721C67.8504 224.019 73.7408 230.512 81.3142 235.202C88.8876 239.771 97.7833 242.056 108.001 242.056C118.46 242.056 127.476 239.771 135.049 235.202C142.623 230.512 148.393 224.019 152.36 215.721C156.447 207.304 158.491 197.504 158.491 186.321L163.9 229.971H155.425C153.021 242.717 149.114 253.539 143.704 262.438C138.295 271.216 131.142 278.01 122.247 282.82C113.471 287.509 102.832 289.854 90.3301 289.854C76.6259 289.854 64.244 287.149 53.1845 281.737C42.2452 276.326 32.8686 268.871 25.0548 259.371C17.241 249.872 11.2304 238.869 7.02292 226.363C2.9357 213.858 0.89209 200.39 0.89209 185.96C0.89209 165.037 5.15963 146.88 13.6947 131.488C22.2298 115.976 34.1909 104.011 49.5781 95.5941C64.9653 87.0565 82.9972 82.7877 103.674 82.7877Z" fill="black"/>
<path d="M368.074 289.854C346.076 289.854 326.902 285.525 310.553 276.867C294.204 268.089 281.461 256.004 272.325 240.613C263.309 225.101 258.801 207.184 258.801 186.862C258.801 166.3 263.309 148.202 272.325 132.57C281.461 116.938 294.204 104.733 310.553 95.9548C326.902 87.1767 346.076 82.7877 368.074 82.7877C389.953 82.7877 409.067 87.1767 425.416 95.9548C441.885 104.733 454.627 116.938 463.643 132.57C472.659 148.202 477.167 166.3 477.167 186.862C477.167 207.184 472.659 225.101 463.643 240.613C454.627 256.004 441.945 268.089 425.596 276.867C409.247 285.525 390.073 289.854 368.074 289.854ZM368.074 241.334C378.413 241.334 387.489 239.11 395.302 234.661C403.237 230.091 409.427 223.718 413.875 215.541C418.323 207.364 420.547 197.744 420.547 186.682C420.547 175.739 418.323 166.119 413.875 157.822C409.427 149.405 403.237 142.851 395.302 138.162C387.489 133.472 378.413 131.127 368.074 131.127C357.736 131.127 348.6 133.472 340.666 138.162C332.852 142.851 326.721 149.405 322.273 157.822C317.826 166.119 315.602 175.739 315.602 186.682C315.602 197.744 317.826 207.364 322.273 215.541C326.721 223.718 332.852 230.091 340.666 234.661C348.6 239.11 357.736 241.334 368.074 241.334Z" fill="black"/>
<path d="M588.018 240.613H617.771V285.706H502.186V240.613H533.201V45.8115H502.186V0.718628H588.018V240.613Z" fill="black"/>
<path d="M726.906 240.613H756.658V285.706H641.074V240.613H672.089V45.8115H641.074V0.718628H726.906V240.613Z" fill="black"/>
<path d="M942.97 285.706C935.036 285.706 928.905 283.361 924.577 278.671C920.37 273.861 918.266 267.127 918.266 258.47V215.721L922.053 208.507L919.889 186.862L918.266 174.777V159.085C918.266 152.231 916.823 146.579 913.938 142.13C911.053 137.561 906.846 134.194 901.316 132.029C895.906 129.865 889.355 128.782 881.661 128.782C870.842 128.782 862.007 131.007 855.154 135.456C848.423 139.785 844.035 146.699 841.991 156.199L791.502 148.443C793.666 134.374 798.414 122.409 805.747 112.549C813.08 102.689 823.358 95.1732 836.582 90.0025C849.805 84.8319 866.334 82.2466 886.169 82.2466C904.802 82.2466 920.55 84.7116 933.413 89.6418C946.396 94.4517 956.253 102.027 962.985 112.369C969.717 122.71 973.083 136.057 973.083 152.411V240.432H996.885V285.706H942.97ZM848.663 289.313C827.866 289.313 812.118 284.503 801.419 274.883C790.721 265.264 785.371 251.676 785.371 234.119C785.371 217.044 790.721 204.057 801.419 195.159C812.118 186.141 828.888 179.587 851.728 175.499L928.364 161.069V187.764L867.596 200.751C858.941 202.434 852.63 205.32 848.663 209.408C844.696 213.377 842.712 218.668 842.712 225.281C842.712 232.376 844.936 237.787 849.384 241.515C853.952 245.242 860.444 247.106 868.859 247.106C878.476 247.106 887.131 244.701 894.825 239.891C902.638 235.081 908.769 228.227 913.217 219.329C917.665 210.31 919.889 199.488 919.889 186.862L928.905 229.249H916.643C913.998 249.331 906.846 264.362 895.185 274.342C883.525 284.323 868.017 289.313 848.663 289.313Z" fill="black"/>
<path d="M1040.44 290.936V45.8115H1010.51V0.718628H1095.26V158.183L1094.18 177.843V206.162L1095.26 245.663L1042.6 290.936H1040.44ZM1148.99 289.854C1134.45 289.854 1120.98 287.63 1108.6 283.18C1096.34 278.611 1085.64 271.877 1076.5 262.979C1067.49 253.96 1060.52 242.777 1055.59 229.43L1094.18 186.321C1094.18 197.263 1096.16 206.943 1100.13 215.361C1104.09 223.658 1109.86 230.211 1117.44 235.021C1125.01 239.711 1134.15 242.056 1144.84 242.056C1155.66 242.056 1164.8 239.771 1172.25 235.202C1179.83 230.512 1185.54 224.019 1189.38 215.721C1193.35 207.304 1195.33 197.384 1195.33 185.96C1195.33 174.897 1193.23 165.217 1189.02 156.92C1184.82 148.623 1178.93 142.13 1171.35 137.44C1163.78 132.751 1154.94 130.406 1144.84 130.406C1134.27 130.406 1125.19 132.751 1117.62 137.44C1110.04 142.13 1104.21 148.683 1100.13 157.101C1096.16 165.398 1094.18 175.138 1094.18 186.321L1088.77 142.491H1097.24C1099.64 129.865 1103.55 119.102 1108.96 110.204C1114.37 101.306 1121.46 94.5118 1130.24 89.8222C1139.13 85.1325 1149.83 82.7877 1162.34 82.7877C1176.04 82.7877 1188.36 85.4932 1199.3 90.9044C1210.36 96.1953 1219.8 103.591 1227.61 113.09C1235.42 122.59 1241.38 133.652 1245.46 146.278C1249.67 158.784 1251.77 172.192 1251.77 186.501C1251.77 207.424 1247.51 225.642 1238.97 241.154C1230.56 256.666 1218.6 268.691 1203.09 277.228C1187.7 285.646 1169.67 289.854 1148.99 289.854Z" fill="black"/>
<path d="M1372.05 240.613H1400.54V285.706H1286.22V240.613H1317.23V132.029H1286.22V86.9362H1372.05V240.613ZM1440.03 140.146C1437.99 139.545 1435.7 139.124 1433.18 138.883C1430.77 138.522 1428.13 138.342 1425.24 138.342C1408.53 138.342 1395.49 143.212 1386.11 152.952C1376.74 162.692 1372.05 176.581 1372.05 194.618L1362.49 145.737H1374.03C1375.35 132.029 1378.3 120.606 1382.87 111.467C1387.56 102.208 1393.81 95.2934 1401.62 90.724C1409.44 86.1546 1418.69 83.8699 1429.39 83.8699C1431.43 83.8699 1433.3 83.9901 1434.98 84.2306C1436.78 84.3509 1438.47 84.5914 1440.03 84.9521V140.146Z" fill="black"/>
<path d="M1619.19 285.706C1611.26 285.706 1605.13 283.361 1600.8 278.671C1596.59 273.861 1594.49 267.127 1594.49 258.47V215.721L1598.28 208.507L1596.11 186.862L1594.49 174.777V159.085C1594.49 152.231 1593.05 146.579 1590.16 142.13C1587.28 137.561 1583.07 134.194 1577.54 132.029C1572.13 129.865 1565.58 128.782 1557.88 128.782C1547.07 128.782 1538.23 131.007 1531.38 135.456C1524.65 139.785 1520.26 146.699 1518.21 156.199L1467.73 148.443C1469.89 134.374 1474.64 122.409 1481.97 112.549C1489.3 102.689 1499.58 95.1732 1512.8 90.0025C1526.03 84.8319 1542.56 82.2466 1562.39 82.2466C1581.03 82.2466 1596.77 84.7116 1609.64 89.6418C1622.62 94.4517 1632.48 102.027 1639.21 112.369C1645.94 122.71 1649.31 136.057 1649.31 152.411V240.432H1673.11V285.706H1619.19ZM1524.89 289.313C1504.09 289.313 1488.34 284.503 1477.64 274.883C1466.94 265.264 1461.59 251.676 1461.59 234.119C1461.59 217.044 1466.94 204.057 1477.64 195.159C1488.34 186.141 1505.11 179.587 1527.95 175.499L1604.59 161.069V187.764L1543.82 200.751C1535.16 202.434 1528.85 205.32 1524.89 209.408C1520.92 213.377 1518.94 218.668 1518.94 225.281C1518.94 232.376 1521.16 237.787 1525.61 241.515C1530.18 245.242 1536.67 247.106 1545.08 247.106C1554.7 247.106 1563.35 244.701 1571.05 239.891C1578.86 235.081 1584.99 228.227 1589.44 219.329C1593.89 210.31 1596.11 199.488 1596.11 186.862L1605.13 229.249H1592.87C1590.22 249.331 1583.07 264.362 1571.41 274.342C1559.75 284.323 1544.24 289.313 1524.89 289.313Z" fill="black"/>
</svg>
