<svg width="348" height="76" viewBox="0 0 348 76" fill="none" xmlns="http://www.w3.org/2000/svg">
<path d="M44.1772 66.3H50.2522V75.7125H26.1397V66.3H32.7772L32.7397 44.0625L33.0022 40.4625V38.1L32.7397 33.0375V26.925L43.7272 17.5125H44.1772V66.3ZM21.6022 17.8125C24.6272 17.8125 27.4147 18.2875 29.9647 19.2375C32.5397 20.1625 34.7647 21.5625 36.6397 23.4375C38.5397 25.2875 40.0147 27.6 41.0647 30.375L33.0022 39.3375C33.0022 37.0375 32.5897 35.025 31.7647 33.3C30.9397 31.55 29.7397 30.1875 28.1647 29.2125C26.5897 28.2125 24.7022 27.7125 22.5022 27.7125C20.2272 27.7125 18.3022 28.1875 16.7272 29.1375C15.1772 30.0875 13.9897 31.4375 13.1647 33.1875C12.3647 34.9375 11.9647 37 11.9647 39.375C11.9647 41.675 12.4022 43.7 13.2772 45.45C14.1522 47.175 15.3772 48.525 16.9522 49.5C18.5272 50.45 20.3772 50.925 22.5022 50.925C24.6772 50.925 26.5522 50.45 28.1272 49.5C29.7022 48.525 30.9022 47.175 31.7272 45.45C32.5772 43.7 33.0022 41.6625 33.0022 39.3375L34.1272 48.4125H32.3647C31.8647 51.0625 31.0522 53.3125 29.9272 55.1625C28.8022 56.9875 27.3147 58.4 25.4647 59.4C23.6397 60.375 21.4272 60.8625 18.8272 60.8625C15.9772 60.8625 13.4022 60.3 11.1022 59.175C8.82717 58.05 6.87717 56.5 5.25217 54.525C3.62717 52.55 2.37717 50.2625 1.50217 47.6625C0.652173 45.0625 0.227173 42.2625 0.227173 39.2625C0.227173 34.9125 1.11467 31.1375 2.88967 27.9375C4.66467 24.7125 7.15217 22.225 10.3522 20.475C13.5522 18.7 17.3022 17.8125 21.6022 17.8125Z" fill="white"/>
<path d="M76.5883 60.8625C72.0133 60.8625 68.0258 59.9625 64.6258 58.1625C61.2258 56.3375 58.5758 53.825 56.6758 50.625C54.8008 47.4 53.8633 43.675 53.8633 39.45C53.8633 35.175 54.8008 31.4125 56.6758 28.1625C58.5758 24.9125 61.2258 22.375 64.6258 20.55C68.0258 18.725 72.0133 17.8125 76.5883 17.8125C81.1383 17.8125 85.1133 18.725 88.5133 20.55C91.9383 22.375 94.5883 24.9125 96.4633 28.1625C98.3383 31.4125 99.2758 35.175 99.2758 39.45C99.2758 43.675 98.3383 47.4 96.4633 50.625C94.5883 53.825 91.9508 56.3375 88.5508 58.1625C85.1508 59.9625 81.1633 60.8625 76.5883 60.8625ZM76.5883 50.775C78.7383 50.775 80.6258 50.3125 82.2508 49.3875C83.9008 48.4375 85.1883 47.1125 86.1133 45.4125C87.0383 43.7125 87.5008 41.7125 87.5008 39.4125C87.5008 37.1375 87.0383 35.1375 86.1133 33.4125C85.1883 31.6625 83.9008 30.3 82.2508 29.325C80.6258 28.35 78.7383 27.8625 76.5883 27.8625C74.4383 27.8625 72.5383 28.35 70.8883 29.325C69.2633 30.3 67.9883 31.6625 67.0633 33.4125C66.1383 35.1375 65.6758 37.1375 65.6758 39.4125C65.6758 41.7125 66.1383 43.7125 67.0633 45.4125C67.9883 47.1125 69.2633 48.4375 70.8883 49.3875C72.5383 50.3125 74.4383 50.775 76.5883 50.775Z" fill="white"/>
<path d="M122.329 50.625H128.516V60H104.479V50.625H110.929V10.125H104.479V0.75H122.329V50.625Z" fill="white"/>
<path d="M151.213 50.625H157.4V60H133.363V50.625H139.813V10.125H133.363V0.75H151.213V50.625Z" fill="white"/>
<path d="M196.147 60C194.497 60 193.221 59.5125 192.322 58.5375C191.447 57.5375 191.009 56.1375 191.009 54.3375V45.45L191.797 43.95L191.347 39.45L191.009 36.9375V33.675C191.009 32.25 190.709 31.075 190.109 30.15C189.509 29.2 188.634 28.5 187.484 28.05C186.359 27.6 184.997 27.375 183.397 27.375C181.147 27.375 179.309 27.8375 177.884 28.7625C176.484 29.6625 175.572 31.1 175.147 33.075L164.647 31.4625C165.097 28.5375 166.084 26.05 167.609 24C169.134 21.95 171.272 20.3875 174.022 19.3125C176.772 18.2375 180.209 17.7 184.334 17.7C188.209 17.7 191.484 18.2125 194.159 19.2375C196.859 20.2375 198.909 21.8125 200.309 23.9625C201.709 26.1125 202.409 28.8875 202.409 32.2875V50.5875H207.359V60H196.147ZM176.534 60.75C172.209 60.75 168.934 59.75 166.709 57.75C164.484 55.75 163.372 52.925 163.372 49.275C163.372 45.725 164.484 43.025 166.709 41.175C168.934 39.3 172.422 37.9375 177.172 37.0875L193.109 34.0875V39.6375L180.472 42.3375C178.672 42.6875 177.359 43.2875 176.534 44.1375C175.709 44.9625 175.297 46.0625 175.297 47.4375C175.297 48.9125 175.759 50.0375 176.684 50.8125C177.634 51.5875 178.984 51.975 180.734 51.975C182.734 51.975 184.534 51.475 186.134 50.475C187.759 49.475 189.034 48.05 189.959 46.2C190.884 44.325 191.347 42.075 191.347 39.45L193.222 48.2625H190.672C190.122 52.4375 188.634 55.5625 186.209 57.6375C183.784 59.7125 180.559 60.75 176.534 60.75Z" fill="white"/>
<path d="M216.417 61.0875V10.125H210.192V0.75H227.817V33.4875L227.592 37.575V43.4625L227.817 51.675L216.867 61.0875H216.417ZM238.992 60.8625C235.967 60.8625 233.167 60.4 230.592 59.475C228.042 58.525 225.817 57.125 223.917 55.275C222.042 53.4 220.592 51.075 219.567 48.3L227.592 39.3375C227.592 41.6125 228.005 43.625 228.83 45.375C229.655 47.1 230.855 48.4625 232.43 49.4625C234.005 50.4375 235.905 50.925 238.13 50.925C240.38 50.925 242.28 50.45 243.83 49.5C245.405 48.525 246.592 47.175 247.392 45.45C248.217 43.7 248.63 41.6375 248.63 39.2625C248.63 36.9625 248.192 34.95 247.317 33.225C246.442 31.5 245.217 30.15 243.642 29.175C242.067 28.2 240.23 27.7125 238.13 27.7125C235.93 27.7125 234.042 28.2 232.467 29.175C230.892 30.15 229.68 31.5125 228.83 33.2625C228.005 34.9875 227.592 37.0125 227.592 39.3375L226.467 30.225H228.23C228.73 27.6 229.542 25.3625 230.667 23.5125C231.792 21.6625 233.267 20.25 235.092 19.275C236.942 18.3 239.167 17.8125 241.767 17.8125C244.617 17.8125 247.18 18.375 249.455 19.5C251.755 20.6 253.717 22.1375 255.342 24.1125C256.967 26.0875 258.204 28.3875 259.055 31.0125C259.93 33.6125 260.367 36.4 260.367 39.375C260.367 43.725 259.48 47.5125 257.705 50.7375C255.955 53.9625 253.467 56.4625 250.242 58.2375C247.042 59.9875 243.292 60.8625 238.992 60.8625Z" fill="white"/>
<path d="M285.38 50.625H291.305V60H267.53V50.625H273.98V28.05H267.53V18.675H285.38V50.625ZM299.518 29.7375C299.093 29.6125 298.618 29.525 298.093 29.475C297.593 29.4 297.043 29.3625 296.443 29.3625C292.968 29.3625 290.255 30.375 288.305 32.4C286.355 34.425 285.38 37.3125 285.38 41.0625L283.393 30.9H285.793C286.068 28.05 286.68 25.675 287.63 23.775C288.605 21.85 289.905 20.4125 291.53 19.4625C293.155 18.5125 295.08 18.0375 297.305 18.0375C297.73 18.0375 298.118 18.0625 298.468 18.1125C298.843 18.1375 299.193 18.1875 299.518 18.2625V29.7375Z" fill="white"/>
<path d="M336.777 60C335.127 60 333.852 59.5125 332.952 58.5375C332.077 57.5375 331.64 56.1375 331.64 54.3375V45.45L332.427 43.95L331.977 39.45L331.64 36.9375V33.675C331.64 32.25 331.34 31.075 330.74 30.15C330.14 29.2 329.265 28.5 328.115 28.05C326.99 27.6 325.627 27.375 324.027 27.375C321.777 27.375 319.94 27.8375 318.515 28.7625C317.115 29.6625 316.202 31.1 315.777 33.075L305.277 31.4625C305.727 28.5375 306.715 26.05 308.24 24C309.765 21.95 311.902 20.3875 314.652 19.3125C317.402 18.2375 320.84 17.7 324.965 17.7C328.84 17.7 332.115 18.2125 334.79 19.2375C337.49 20.2375 339.54 21.8125 340.94 23.9625C342.34 26.1125 343.04 28.8875 343.04 32.2875V50.5875H347.99V60H336.777ZM317.165 60.75C312.84 60.75 309.565 59.75 307.34 57.75C305.115 55.75 304.002 52.925 304.002 49.275C304.002 45.725 305.115 43.025 307.34 41.175C309.565 39.3 313.052 37.9375 317.802 37.0875L333.74 34.0875V39.6375L321.102 42.3375C319.302 42.6875 317.99 43.2875 317.165 44.1375C316.34 44.9625 315.927 46.0625 315.927 47.4375C315.927 48.9125 316.39 50.0375 317.315 50.8125C318.265 51.5875 319.615 51.975 321.365 51.975C323.365 51.975 325.165 51.475 326.765 50.475C328.39 49.475 329.665 48.05 330.59 46.2C331.515 44.325 331.977 42.075 331.977 39.45L333.852 48.2625H331.302C330.752 52.4375 329.265 55.5625 326.84 57.6375C324.415 59.7125 321.19 60.75 317.165 60.75Z" fill="white"/>
</svg>
