<svg width="500" height="500" viewBox="0 0 500 500" fill="none" xmlns="http://www.w3.org/2000/svg">
<rect width="500" height="500" fill="#303030"/>
<path d="M164 303.21V283.64H168.89V299.44H178.13V303.21H164Z" fill="white"/>
<path d="M188.8 303.51C185.62 303.51 183.2 302.7 181.54 301.08C179.88 299.46 179.05 296.94 179.05 293.51C179.05 289.88 179.88 287.28 181.54 285.7C183.2 284.12 185.62 283.33 188.8 283.33C191.98 283.33 194.4 284.12 196.06 285.7C197.72 287.28 198.55 289.88 198.55 293.51C198.55 296.93 197.72 299.46 196.06 301.08C194.4 302.7 191.98 303.51 188.8 303.51ZM188.8 299.35C190.44 299.35 191.64 298.88 192.4 297.94C193.16 297 193.54 295.52 193.54 293.52C193.54 291.33 193.16 289.79 192.4 288.89C191.64 287.99 190.44 287.54 188.8 287.54C187.14 287.54 185.93 287.99 185.17 288.89C184.41 289.79 184.03 291.34 184.03 293.52C184.03 295.52 184.41 297 185.17 297.94C185.93 298.88 187.14 299.35 188.8 299.35Z" fill="white"/>
<path d="M199.06 303.21L206.53 283.64H211.82L219.29 303.21H214.19L212.43 298.77H205.9L204.17 303.21H199.06ZM206.57 295.16H211.77L209.16 288.35L206.57 295.16Z" fill="white"/>
<path d="M221.31 303.21V283.64H229.79C231.77 283.64 233.45 283.97 234.8 284.63C236.16 285.29 237.19 286.34 237.9 287.79C238.61 289.24 238.96 291.16 238.96 293.55C238.96 296.91 238.19 299.36 236.64 300.9C235.09 302.44 232.81 303.21 229.79 303.21H221.31ZM226.2 299.44H229.12C230.17 299.44 231.06 299.28 231.78 298.97C232.5 298.66 233.05 298.07 233.42 297.22C233.79 296.37 233.98 295.14 233.98 293.54C233.98 291.92 233.81 290.67 233.48 289.79C233.15 288.91 232.62 288.29 231.9 287.94C231.18 287.59 230.25 287.41 229.12 287.41H226.2V299.44Z" fill="white"/>
<path d="M241.47 303.21V283.64H246.3L251.62 294.49L256.91 283.64H261.71V303.21H256.82V291.97L252.96 299.87H250.26L246.37 291.97V303.21H241.47Z" fill="white"/>
<path d="M263.71 303.21L271.18 283.64H276.47L283.94 303.21H278.84L277.08 298.77H270.55L268.82 303.21H263.71ZM271.22 295.16H276.42L273.81 288.35L271.22 295.16Z" fill="white"/>
<path d="M288.15 303.21V287.41H282.41V283.64H298.79V287.41H293.05V303.21H288.15Z" fill="white"/>
<path d="M310.27 303.51C306.85 303.51 304.24 302.63 302.45 300.88C300.66 299.13 299.76 296.69 299.76 293.57C299.76 290.31 300.64 287.79 302.39 286C304.14 284.22 306.76 283.33 310.24 283.33C311.44 283.33 312.5 283.42 313.45 283.6C314.39 283.78 315.3 284.02 316.17 284.33V288.62C314.41 287.89 312.55 287.53 310.61 287.53C308.58 287.53 307.1 288.02 306.16 288.99C305.22 289.96 304.75 291.49 304.75 293.58C304.75 295.57 305.25 297.02 306.24 297.96C307.23 298.89 308.71 299.36 310.68 299.36C311.63 299.36 312.57 299.27 313.51 299.1C314.44 298.93 315.34 298.66 316.21 298.3V302.61C315.36 302.89 314.46 303.12 313.51 303.28C312.54 303.43 311.47 303.51 310.27 303.51Z" fill="white"/>
<path d="M318.88 303.21V283.64H323.77V291.39H331.43V283.64H336.32V303.21H331.43V295.46H323.77V303.21H318.88Z" fill="white"/>
<path d="M229.65 199.88L212.49 229.59L229.65 259.3L246.8 229.59L229.65 199.88ZM275.15 233.47L266.58 248.32H257.64L266.21 233.47H253.53L236.38 263.17H270.67L287.83 233.46H275.15V233.47ZM270.67 196H236.38L253.52 225.71H266.2L257.63 210.86H266.57L275.14 225.71H287.82L270.67 196Z" fill="white"/>
</svg>
