<svg width="500" height="500" viewBox="0 0 500 500" fill="none" xmlns="http://www.w3.org/2000/svg">
<rect width="500" height="500" fill="#303030"/>
<path d="M211.01 258.32V238.75H215.9V254.55H225.14V258.32H211.01Z" fill="white"/>
<path d="M235.81 258.62C232.63 258.62 230.21 257.81 228.55 256.19C226.89 254.57 226.06 252.05 226.06 248.62C226.06 244.99 226.89 242.39 228.55 240.81C230.21 239.23 232.63 238.44 235.81 238.44C238.99 238.44 241.41 239.23 243.07 240.81C244.73 242.39 245.56 244.99 245.56 248.62C245.56 252.04 244.73 254.57 243.07 256.19C241.41 257.81 238.99 258.62 235.81 258.62ZM235.81 254.46C237.45 254.46 238.65 253.99 239.41 253.05C240.17 252.11 240.55 250.63 240.55 248.63C240.55 246.44 240.17 244.9 239.41 244C238.65 243.1 237.45 242.65 235.81 242.65C234.15 242.65 232.94 243.1 232.18 244C231.42 244.9 231.04 246.45 231.04 248.63C231.04 250.64 231.42 252.11 232.18 253.05C232.94 253.99 234.15 254.46 235.81 254.46Z" fill="white"/>
<path d="M246.07 258.32L253.54 238.75H258.83L266.3 258.32H261.2L259.44 253.88H252.91L251.18 258.32H246.07ZM253.58 250.27H258.78L256.17 243.46L253.58 250.27Z" fill="white"/>
<path d="M268.32 258.32V238.75H276.8C278.78 238.75 280.46 239.08 281.81 239.74C283.17 240.4 284.2 241.45 284.91 242.9C285.62 244.35 285.97 246.27 285.97 248.66C285.97 252.02 285.2 254.47 283.65 256.01C282.1 257.55 279.82 258.32 276.8 258.32H268.32ZM273.21 254.55H276.13C277.18 254.55 278.07 254.39 278.79 254.08C279.51 253.77 280.06 253.18 280.43 252.33C280.8 251.48 280.99 250.25 280.99 248.65C280.99 247.03 280.82 245.78 280.49 244.9C280.16 244.02 279.63 243.4 278.91 243.05C278.19 242.7 277.26 242.52 276.13 242.52H273.21V254.55Z" fill="white"/>
<path d="M288.48 258.32V238.75H293.31L298.63 249.6L303.92 238.75H308.72V258.32H303.83V247.08L299.97 254.98H297.27L293.38 247.08V258.32H288.48Z" fill="white"/>
<path d="M310.72 258.32L318.19 238.75H323.48L330.95 258.32H325.85L324.09 253.88H317.56L315.83 258.32H310.72ZM318.23 250.27H323.43L320.82 243.46L318.23 250.27Z" fill="white"/>
<path d="M335.16 258.32V242.52H329.42V238.75H345.8V242.52H340.06V258.32H335.16Z" fill="white"/>
<path d="M357.28 258.62C353.86 258.62 351.25 257.74 349.46 255.99C347.67 254.24 346.77 251.8 346.77 248.68C346.77 245.42 347.65 242.9 349.4 241.11C351.15 239.33 353.77 238.44 357.25 238.44C358.45 238.44 359.51 238.53 360.46 238.71C361.4 238.89 362.31 239.14 363.18 239.44V243.72C361.42 242.99 359.56 242.63 357.62 242.63C355.59 242.63 354.11 243.12 353.17 244.09C352.23 245.06 351.76 246.59 351.76 248.68C351.76 250.67 352.26 252.12 353.25 253.06C354.24 253.99 355.72 254.46 357.69 254.46C358.64 254.46 359.58 254.37 360.52 254.2C361.45 254.03 362.35 253.76 363.22 253.39V257.7C362.37 257.98 361.47 258.21 360.52 258.37C359.55 258.54 358.48 258.62 357.28 258.62Z" fill="white"/>
<path d="M365.89 258.32V238.75H370.78V246.5H378.44V238.75H383.33V258.32H378.44V250.57H370.78V258.32H365.89Z" fill="white"/>
<path d="M133.16 219.88L116 249.59L133.16 279.3L150.3 249.59L133.16 219.88ZM178.66 253.47L170.09 268.32H161.15L169.72 253.47H157.03L139.89 283.17H174.18L191.34 253.46H178.66V253.47ZM174.18 216H139.89L157.03 245.71H169.71L161.14 230.86H170.08L178.65 245.71H191.33L174.18 216Z" fill="white"/>
</svg>
